<svg width="682" height="602" viewBox="0 0 682 602" fill="none" xmlns="http://www.w3.org/2000/svg">
<g filter="url(#filter0_f_871_15111)">
<path d="M350.3 593.055C523.478 592.922 553.538 576.817 546.921 568.781L346.264 565.461L133.828 568.781C133.828 576.927 177.123 593.188 350.3 593.055Z" fill="url(#paint0_radial_871_15111)"/>
</g>
<g filter="url(#filter1_i_871_15111)">
<path d="M1 398.293H682V456.255C682 462.196 677.184 467.012 671.243 467.012H11.7573C5.81623 467.012 1 462.196 1 456.255V398.293Z" fill="#F5CBC5"/>
</g>
<path fill-rule="evenodd" clip-rule="evenodd" d="M11.7554 0C5.81426 0 0.998047 4.81618 0.998047 10.7573V398.293H681.998V10.7573C681.998 4.81621 677.182 0 671.241 0H11.7554ZM666.107 15.8947H16.4229V383.334H666.107V15.8947Z" fill="#EFF0F2"/>
<path d="M260.402 467.012H422.122V566.585H260.402V467.012Z" fill="url(#paint1_linear_871_15111)"/>
<path d="M260.402 467.012H422.122V566.585H260.402V467.012Z" fill="url(#paint2_linear_871_15111)"/>
<rect x="260.402" y="566.584" width="161.72" height="7.01298" fill="url(#paint3_linear_871_15111)"/>
<path d="M263.207 573.596H283.773V574.531C283.773 574.789 283.563 574.999 283.305 574.999H263.675C263.416 574.999 263.207 574.789 263.207 574.531V573.596Z" fill="#E2B0A6"/>
<path d="M399.688 573.596H420.253V574.531C420.253 574.789 420.044 574.999 419.785 574.999H400.155C399.897 574.999 399.688 574.789 399.688 574.531V573.596Z" fill="#E2B0A6"/>
<ellipse cx="341.263" cy="7.94679" rx="2.80439" ry="2.80519" fill="black"/>
<defs>
<filter id="filter0_f_871_15111" x="125.409" y="557.042" width="430.759" height="44.4322" filterUnits="userSpaceOnUse" color-interpolation-filters="sRGB">
<feFlood flood-opacity="0" result="BackgroundImageFix"/>
<feBlend mode="normal" in="SourceGraphic" in2="BackgroundImageFix" result="shape"/>
<feGaussianBlur stdDeviation="4.20938" result="effect1_foregroundBlur_871_15111"/>
</filter>
<filter id="filter1_i_871_15111" x="1" y="397.358" width="681" height="69.6551" filterUnits="userSpaceOnUse" color-interpolation-filters="sRGB">
<feFlood flood-opacity="0" result="BackgroundImageFix"/>
<feBlend mode="normal" in="SourceGraphic" in2="BackgroundImageFix" result="shape"/>
<feColorMatrix in="SourceAlpha" type="matrix" values="0 0 0 0 0 0 0 0 0 0 0 0 0 0 0 0 0 0 127 0" result="hardAlpha"/>
<feOffset dy="-0.935418"/>
<feGaussianBlur stdDeviation="0.701563"/>
<feComposite in2="hardAlpha" operator="arithmetic" k2="-1" k3="1"/>
<feColorMatrix type="matrix" values="0 0 0 0 0 0 0 0 0 0 0 0 0 0 0 0 0 0 0.39 0"/>
<feBlend mode="overlay" in2="shape" result="effect1_innerShadow_871_15111"/>
</filter>
<radialGradient id="paint0_radial_871_15111" cx="0" cy="0" r="1" gradientUnits="userSpaceOnUse" gradientTransform="translate(340.789 568.781) rotate(90) scale(24.2752 413.922)">
<stop stop-color="white" stop-opacity="0.6"/>
<stop offset="0.244792" stop-color="white" stop-opacity="0.2"/>
<stop offset="0.588542" stop-color="white" stop-opacity="0"/>
</radialGradient>
<linearGradient id="paint1_linear_871_15111" x1="341.262" y1="497.235" x2="341.262" y2="566.585" gradientUnits="userSpaceOnUse">
<stop stop-color="#ECB9AF"/>
<stop offset="0.850334" stop-color="#EFC5BD"/>
<stop offset="0.924927" stop-color="#F3D6D2"/>
<stop offset="0.949228" stop-color="#E6C0BA"/>
<stop offset="0.965462" stop-color="#D39B92"/>
<stop offset="0.988047" stop-color="#C17F75"/>
<stop offset="1" stop-color="#A66054"/>
</linearGradient>
<linearGradient id="paint2_linear_871_15111" x1="327.941" y1="465.372" x2="333.813" y2="522.067" gradientUnits="userSpaceOnUse">
<stop stop-color="#CF9F95"/>
<stop offset="0.0001" stop-color="#CF9F95"/>
<stop offset="1" stop-color="#CF9F95" stop-opacity="0"/>
</linearGradient>
<linearGradient id="paint3_linear_871_15111" x1="260.402" y1="570.324" x2="422.122" y2="570.324" gradientUnits="userSpaceOnUse">
<stop stop-color="#DD9F97"/>
<stop offset="0.00434818" stop-color="#EDB0A8"/>
<stop offset="0.00828729" stop-color="#B8786F"/>
<stop offset="0.0122617" stop-color="#B0746C"/>
<stop offset="0.0180073" stop-color="#B8786F"/>
<stop offset="0.0233684" stop-color="#C1857D"/>
<stop offset="0.0340906" stop-color="#F0BFB8"/>
<stop offset="0.0451479" stop-color="#F5CEC8"/>
<stop offset="0.0581928" stop-color="#F0BFB8"/>
<stop offset="0.085429" stop-color="#E4ADA5"/>
<stop offset="0.255078" stop-color="#E9B6AE"/>
<stop offset="0.388037" stop-color="#EEC0B8"/>
<stop offset="0.896611" stop-color="#E9B6AE"/>
<stop offset="0.935298" stop-color="#E4ADA5"/>
<stop offset="0.947752" stop-color="#F0BFB8"/>
<stop offset="0.958427" stop-color="#F5CEC8"/>
<stop offset="0.965604" stop-color="#F0BFB8"/>
<stop offset="0.977185" stop-color="#C1857D"/>
<stop offset="0.985248" stop-color="#B27269"/>
<stop offset="0.987569" stop-color="#B0746C"/>
<stop offset="0.996017" stop-color="#EDB0A8"/>
<stop offset="0.999106" stop-color="#DD9F97"/>
</linearGradient>
</defs>
</svg>
