<svg width="682" height="602" viewBox="0 0 682 602" fill="none" xmlns="http://www.w3.org/2000/svg">
<g filter="url(#filter0_f_871_14582)">
<path d="M349.751 593.055C522.929 592.922 552.989 576.817 546.372 568.781L345.716 565.461L133.279 568.781C133.279 576.927 176.574 593.188 349.751 593.055Z" fill="url(#paint0_radial_871_14582)"/>
</g>
<g filter="url(#filter1_i_871_14582)">
<path d="M0.451172 398.293H681.451V456.255C681.451 462.196 676.635 467.012 670.694 467.012H11.2085C5.2674 467.012 0.451172 462.196 0.451172 456.255V398.293Z" fill="#F2B39F"/>
</g>
<path fill-rule="evenodd" clip-rule="evenodd" d="M11.2065 0C5.26543 0 0.449219 4.81618 0.449219 10.7573V398.293H681.449V10.7573C681.449 4.81621 676.633 0 670.692 0H11.2065ZM665.558 15.8947H15.8741V383.334H665.558V15.8947Z" fill="#EFF0F2"/>
<path d="M259.854 467.012H421.573V566.585H259.854V467.012Z" fill="url(#paint1_linear_871_14582)"/>
<path d="M259.854 467.012H421.573V566.585H259.854V467.012Z" fill="url(#paint2_linear_871_14582)"/>
<rect x="259.854" y="566.584" width="161.72" height="7.01298" fill="url(#paint3_linear_871_14582)"/>
<path d="M262.658 573.596H283.224V574.531C283.224 574.789 283.014 574.999 282.756 574.999H263.126C262.868 574.999 262.658 574.789 262.658 574.531V573.596Z" fill="#FAC0B4"/>
<path d="M399.139 573.596H419.704V574.531C419.704 574.789 419.495 574.999 419.237 574.999H399.606C399.348 574.999 399.139 574.789 399.139 574.531V573.596Z" fill="#FAC0B4"/>
<ellipse cx="340.715" cy="7.94679" rx="2.80439" ry="2.80519" fill="black"/>
<defs>
<filter id="filter0_f_871_14582" x="124.861" y="557.042" width="430.759" height="44.4322" filterUnits="userSpaceOnUse" color-interpolation-filters="sRGB">
<feFlood flood-opacity="0" result="BackgroundImageFix"/>
<feBlend mode="normal" in="SourceGraphic" in2="BackgroundImageFix" result="shape"/>
<feGaussianBlur stdDeviation="4.20938" result="effect1_foregroundBlur_871_14582"/>
</filter>
<filter id="filter1_i_871_14582" x="0.451172" y="397.358" width="681" height="69.6551" filterUnits="userSpaceOnUse" color-interpolation-filters="sRGB">
<feFlood flood-opacity="0" result="BackgroundImageFix"/>
<feBlend mode="normal" in="SourceGraphic" in2="BackgroundImageFix" result="shape"/>
<feColorMatrix in="SourceAlpha" type="matrix" values="0 0 0 0 0 0 0 0 0 0 0 0 0 0 0 0 0 0 127 0" result="hardAlpha"/>
<feOffset dy="-0.935418"/>
<feGaussianBlur stdDeviation="0.701563"/>
<feComposite in2="hardAlpha" operator="arithmetic" k2="-1" k3="1"/>
<feColorMatrix type="matrix" values="0 0 0 0 0 0 0 0 0 0 0 0 0 0 0 0 0 0 0.39 0"/>
<feBlend mode="overlay" in2="shape" result="effect1_innerShadow_871_14582"/>
</filter>
<radialGradient id="paint0_radial_871_14582" cx="0" cy="0" r="1" gradientUnits="userSpaceOnUse" gradientTransform="translate(340.24 568.781) rotate(90) scale(24.2752 413.922)">
<stop stop-color="white" stop-opacity="0.6"/>
<stop offset="0.244792" stop-color="white" stop-opacity="0.2"/>
<stop offset="0.588542" stop-color="white" stop-opacity="0"/>
</radialGradient>
<linearGradient id="paint1_linear_871_14582" x1="340.714" y1="497.235" x2="340.714" y2="566.585" gradientUnits="userSpaceOnUse">
<stop stop-color="#E3A28C"/>
<stop offset="0.850334" stop-color="#E2A18B"/>
<stop offset="0.899682" stop-color="#F6C3B2"/>
<stop offset="0.924927" stop-color="#F9D3C8"/>
<stop offset="0.949228" stop-color="#F3B4A2"/>
<stop offset="0.965462" stop-color="#D18D78"/>
<stop offset="0.988047" stop-color="#AB634B"/>
<stop offset="1" stop-color="#914D36"/>
</linearGradient>
<linearGradient id="paint2_linear_871_14582" x1="327.393" y1="465.372" x2="333.264" y2="522.067" gradientUnits="userSpaceOnUse">
<stop stop-color="#D2907A"/>
<stop offset="1" stop-color="#E9A892" stop-opacity="0"/>
</linearGradient>
<linearGradient id="paint3_linear_871_14582" x1="259.854" y1="570.324" x2="421.573" y2="570.324" gradientUnits="userSpaceOnUse">
<stop stop-color="#EFAA9B"/>
<stop offset="0.00434818" stop-color="#F2B299"/>
<stop offset="0.00828729" stop-color="#CC8873"/>
<stop offset="0.0122617" stop-color="#B36853"/>
<stop offset="0.0180073" stop-color="#B26750"/>
<stop offset="0.0233684" stop-color="#C47D67"/>
<stop offset="0.0340906" stop-color="#DD9B85"/>
<stop offset="0.0451479" stop-color="#FAB9A5"/>
<stop offset="0.0581928" stop-color="#FFC8B7"/>
<stop offset="0.085429" stop-color="#E9A791"/>
<stop offset="0.255078" stop-color="#F6B59F"/>
<stop offset="0.388037" stop-color="#F5B49E"/>
<stop offset="0.896611" stop-color="#F6B59F"/>
<stop offset="0.935298" stop-color="#F4B39D"/>
<stop offset="0.947752" stop-color="#FCC5B1"/>
<stop offset="0.958427" stop-color="#FDC8B6"/>
<stop offset="0.965604" stop-color="#ECA891"/>
<stop offset="0.977185" stop-color="#B46C54"/>
<stop offset="0.985172" stop-color="#AF644D"/>
<stop offset="0.987569" stop-color="#BB705D"/>
<stop offset="0.996017" stop-color="#F6B599"/>
<stop offset="0.999106" stop-color="#EBAD98"/>
</linearGradient>
</defs>
</svg>
