<svg width="17" height="15" viewBox="0 0 17 15" fill="none" xmlns="http://www.w3.org/2000/svg">
<path d="M10.7855 0.0362799C10.9436 0.0357423 11.0998 0.0706401 11.2427 0.138408C11.3855 0.206176 11.5114 0.305093 11.611 0.427889L16.7231 6.7783C16.8788 6.96768 16.9639 7.20523 16.9639 7.45038C16.9639 7.69553 16.8788 7.93308 16.7231 8.12247L11.4311 14.4729C11.2514 14.689 10.9933 14.8249 10.7134 14.8507C10.4335 14.8765 10.1549 14.7901 9.93874 14.6105C9.7226 14.4308 9.58667 14.1727 9.56087 13.8928C9.53507 13.6129 9.6215 13.3343 9.80115 13.1181L14.5322 7.44509L9.95991 1.77206C9.83049 1.6167 9.74827 1.42752 9.723 1.2269C9.69773 1.02628 9.73045 0.822622 9.8173 0.640018C9.90414 0.457415 10.0415 0.303511 10.2131 0.196517C10.3846 0.0895234 10.5833 0.0339178 10.7855 0.0362799Z" fill="currentColor"/>
<path d="M1.8255 0.0362799C1.98362 0.0357423 2.13985 0.0706401 2.28272 0.138408C2.42558 0.206176 2.55144 0.305093 2.65106 0.427889L7.76313 6.7783C7.9188 6.96768 8.00391 7.20523 8.00391 7.45038C8.00391 7.69553 7.9188 7.93308 7.76313 8.12247L2.47113 14.4729C2.29148 14.689 2.03332 14.8249 1.75345 14.8507C1.47358 14.8765 1.19492 14.7901 0.978781 14.6105C0.762638 14.4308 0.626714 14.1727 0.60091 13.8928C0.575107 13.6129 0.661537 13.3343 0.841189 13.1181L5.57224 7.44509L0.999951 1.77206C0.870526 1.6167 0.788312 1.42752 0.763038 1.2269C0.737764 1.02628 0.770487 0.822622 0.857335 0.640018C0.944183 0.457415 1.08152 0.303511 1.2531 0.196517C1.42468 0.0895234 1.62331 0.0339178 1.8255 0.0362799Z" fill="currentColor"/>
</svg>
