<svg width="161" height="162" viewBox="0 0 161 162" fill="none" xmlns="http://www.w3.org/2000/svg">
<path d="M73.6427 4.68564L68.6394 5.56468C64.483 6.29491 62.3719 9.65085 62.9844 13.1374C63.597 16.624 66.7256 19.0594 70.882 18.3292L75.8853 17.4501L73.6427 4.68564ZM71.7038 7.05692L73.2542 15.8818L70.6344 16.342C67.9357 16.8162 65.8144 15.2598 65.3679 12.7187C64.9215 10.1776 66.3853 7.99134 69.0839 7.51721L71.7038 7.05692Z" fill="white"/>
<path d="M53.3899 9.51277L44.01 13.8641L44.8517 15.6784L52.127 12.3034L53.7345 15.7686L47.1124 18.8407L47.9456 20.6368L54.5678 17.5648L55.8976 20.4313L48.8763 23.6886L49.718 25.5028L58.8438 21.2693L53.3899 9.51277Z" fill="white"/>
<path d="M33.075 21.1418C31.0862 22.7537 29.7723 25.389 31.4849 27.5021C33.0716 29.4598 35.4998 28.676 37.7762 27.5777C39.2274 26.8907 40.3426 26.4244 40.9975 27.2324C41.7405 28.1491 40.8173 29.3607 40.1492 29.9021C39.1082 30.7459 37.9619 31.2373 36.5947 31.3928L37.0163 33.3423C38.5803 33.2074 40.0265 32.7047 41.4715 31.5336C43.336 30.0225 44.3421 27.6109 42.8183 25.7309C41.1939 23.7265 38.8042 24.685 36.6026 25.7485C35.3756 26.331 34.1079 26.8951 33.365 25.9784C32.622 25.0616 33.294 23.6674 34.3817 22.7859C35.8888 21.5644 37.3144 21.2586 38.6793 21.2593L38.2704 19.3253C37.0985 19.2453 35.2658 19.3662 33.075 21.1418Z" fill="white"/>
<path d="M23.1383 30.9709L21.6598 32.7588L31.6474 41.0178L33.1258 39.2299L23.1383 30.9709Z" fill="white"/>
<path d="M12.9225 45.7713C11.8451 47.8485 11.8191 50.2007 12.8296 52.0316L17.3214 54.3614L19.4485 50.2602L17.7264 49.367L16.6306 51.4797L14.6421 50.4484C14.1491 49.3139 14.1512 47.9632 14.7774 46.756C15.9469 44.5012 18.6589 43.79 20.8782 44.9411C23.0974 46.0922 24.0782 48.7187 22.9087 50.9735C22.3746 52.0032 21.6479 52.7528 20.5858 53.1932L21.353 55.1457C22.7485 54.5403 23.9809 53.4672 24.7821 51.9226C26.587 48.4429 25.2769 44.4965 21.9924 42.7929C18.6902 41.0801 14.7273 42.2915 12.9225 45.7713Z" fill="white"/>
<path d="M7.4658 59.304L6.99506 61.5757L16.1408 63.4709C16.1408 63.4709 14.2064 64.1321 12.4711 64.9164L5.65992 68.0189L5.17294 70.3689L17.8633 72.9986L18.3341 70.7269L9.11005 68.8155C9.11005 68.8155 11.0877 68.1428 12.5082 67.4976L19.6773 64.2446L20.1562 61.9337L7.4658 59.304Z" fill="white"/>
<path d="M4.47259 79.9079L5.05252 90.2316L7.04937 90.1194L6.59956 82.1121L10.4135 81.8978L10.823 89.1863L12.7999 89.0753L12.3904 81.7868L15.5455 81.6095L15.9796 89.3373L17.9764 89.2252L17.4122 79.181L4.47259 79.9079Z" fill="white"/>
<path d="M6.51862 98.6388L8.10001 103.466C9.41369 107.477 13.0357 109.089 16.3998 107.987C19.7639 106.885 21.7297 103.442 20.4161 99.432L18.8347 94.6044L6.51862 98.6388ZM9.14146 100.221L17.6563 97.4317L18.4843 99.9596C19.3373 102.563 18.0982 104.884 15.6464 105.688C13.1946 106.491 10.8225 105.353 9.96951 102.749L9.14146 100.221Z" fill="white"/>
<path d="M19.8776 126.794L23.9833 131.467C25.8976 133.645 28.2676 134.251 30.2658 132.496C31.5278 131.387 31.7932 129.689 31.0567 128.366C31.8024 128.669 32.931 128.53 33.6972 127.856C35.4099 126.351 35.0125 124.384 33.6 122.777L29.6131 118.239L19.8776 126.794ZM22.9114 127.217L25.9763 124.524L28.5902 127.498C29.5671 128.61 29.6599 129.806 28.6383 130.704C27.6317 131.589 26.4494 131.243 25.3801 130.026L22.9114 127.217ZM27.4636 123.217L29.6421 121.302L31.9524 123.932C32.6917 124.773 32.6106 125.59 31.9495 126.17C31.2885 126.751 30.5 126.672 29.8399 125.921L27.4636 123.217Z" fill="white"/>
<path d="M36.9852 143.052L38.9049 144.355L42.2743 139.39L50.3034 136.428L48.1024 134.934L44.079 136.482C43.2054 136.808 42.4151 137.117 42.4151 137.117C42.4151 137.117 42.4548 136.346 42.4241 135.359L42.3104 131.003L40.1094 129.51L40.3434 138.104L36.9852 143.052Z" fill="white"/>
<path d="M63.3413 155.085C66.0743 155.694 68.6781 154.677 69.5353 150.831L71.2019 143.354L68.9374 142.85L67.2622 150.365C66.7444 152.688 65.3252 153.355 63.744 153.003C62.8461 152.803 61.9201 152.269 61.4374 150.665L59.5192 151.549C59.9605 153.43 61.4673 154.668 63.3413 155.085Z" fill="white"/>
<path d="M77.2393 156.99L87.5771 156.778L87.536 154.778L79.5177 154.943L79.4392 151.124L86.7376 150.974L86.6969 148.994L79.3985 149.144L79.3335 145.985L87.0719 145.826L87.0307 143.826L76.9729 144.033L77.2393 156.99Z" fill="white"/>
<path d="M100.516 154.511C102.985 153.835 105.247 151.951 104.529 149.327C103.863 146.897 101.325 146.638 98.7989 146.729C97.1939 146.774 95.9853 146.753 95.7106 145.749C95.3989 144.611 96.7313 143.873 97.5608 143.646C98.8532 143.292 100.1 143.303 101.415 143.71L101.813 141.756C100.326 141.251 98.8 141.129 97.0061 141.621C94.6913 142.255 92.8005 144.058 93.4397 146.392C94.1211 148.88 96.6945 148.964 99.1379 148.875C100.496 148.835 101.883 148.828 102.195 149.967C102.506 151.105 101.33 152.111 99.9801 152.481C98.109 152.993 96.6809 152.7 95.4314 152.151L95.0282 154.086C96.0689 154.63 97.7957 155.256 100.516 154.511Z" fill="white"/>
<path d="M117.934 147.46C120.163 146.202 121.897 143.822 120.56 141.453C119.32 139.259 116.796 139.628 114.368 140.332C112.823 140.769 111.646 141.043 111.135 140.137C110.554 139.11 111.666 138.069 112.415 137.646C113.582 136.987 114.794 136.693 116.168 136.767L116.076 134.774C114.512 134.647 113.002 134.903 111.382 135.817C109.293 136.997 107.899 139.208 109.089 141.315C110.358 143.562 112.874 143.014 115.222 142.331C116.528 141.961 117.872 141.616 118.452 142.643C119.032 143.671 118.138 144.934 116.919 145.622C115.23 146.576 113.773 146.64 112.427 146.413L112.509 148.388C113.651 148.662 115.478 148.847 117.934 147.46Z" fill="white"/>
<path d="M129.367 139.421L131.122 137.903L122.647 128.099L120.892 129.616L129.367 139.421Z" fill="white"/>
<path d="M141.881 126.568C143.02 125.098 143.487 123.385 143.353 121.762L141.218 121.905C141.352 123.071 141.005 124.27 140.233 125.266C138.677 127.273 135.866 127.473 133.89 125.942C131.929 124.423 131.437 121.663 133.078 119.544C133.703 118.738 134.528 118.163 135.605 117.884L135.192 115.869C133.735 116.182 132.349 117.057 131.32 118.385C128.919 121.483 129.498 125.601 132.407 127.855C135.348 130.133 139.48 129.666 141.881 126.568Z" fill="white"/>
<path d="M148.142 117.029L149.059 114.854L147.391 113.044L150.155 106.483L152.616 106.413L153.532 104.238L139.321 104.587L138.467 106.615L148.142 117.029ZM146.006 111.592L143.484 108.924C142.511 107.885 141.198 106.572 141.198 106.572C141.198 106.572 143.081 106.584 144.478 106.565L148.149 106.506L146.006 111.592Z" fill="white"/>
<path d="M156.975 85.9446L156.941 79.7247C156.925 76.8247 155.533 74.8124 152.873 74.8272C151.193 74.8366 149.88 75.9439 149.568 77.4257C149.204 76.7077 148.26 76.0729 147.24 76.0786C144.96 76.0913 143.97 77.8369 143.982 79.9768L144.016 86.0167L156.975 85.9446ZM154.962 83.6357L150.883 83.6585L150.86 79.6985C150.852 78.2185 151.567 77.2546 152.927 77.247C154.267 77.2395 154.933 78.2758 154.942 79.8958L154.962 83.6357ZM148.903 83.6695L146.003 83.6856L145.983 80.1857C145.977 79.0657 146.574 78.5024 147.454 78.4975C148.334 78.4926 148.877 79.0696 148.883 80.0695L148.903 83.6695Z" fill="white"/>
<path d="M154.523 60.9083C153.645 57.6858 151.128 56.1328 147.905 57.0109L140.38 59.0614L140.99 61.2998L148.4 59.2808C150.464 58.7182 151.952 59.536 152.477 61.4657C153.003 63.3953 152.141 64.8738 150.077 65.4364L142.667 67.4554L143.277 69.6938L150.802 67.6432C154.025 66.7652 155.401 64.1309 154.523 60.9083Z" fill="white"/>
<path d="M149.458 47.3433L148.292 45.3374L145.646 46.875L144.169 44.3331C143.968 43.9872 143.732 43.6615 143.5 43.3804L145.096 39.8386L143.739 37.5042L141.891 41.8863C140.318 40.8112 138.428 40.8226 136.923 41.6969C134.554 43.0736 133.63 45.901 135.499 49.1173L138.252 53.8553L149.458 47.3433ZM143.917 47.8799L138.799 50.8545L137.15 48.0187C136.226 46.4278 136.714 44.6406 138.149 43.8065C139.55 42.9925 141.344 43.4532 142.279 45.0613L143.917 47.8799Z" fill="white"/>
<path d="M138.54 30.788L136.897 29.15L134.736 31.317L132.654 29.2412C132.371 28.9588 132.059 28.7047 131.762 28.493L132.393 24.6595L130.481 22.7532L129.823 27.4635C128.026 26.8298 126.203 27.3275 124.974 28.5597C123.039 30.5001 122.874 33.4702 125.509 36.0967L129.389 39.9658L138.54 30.788ZM133.324 32.7333L129.144 36.9256L126.822 34.6098C125.519 33.3107 125.53 31.458 126.702 30.2825C127.846 29.1353 129.698 29.1183 131.016 30.4316L133.324 32.7333Z" fill="white"/>
<path d="M118.311 14.2494C114.89 12.3366 110.914 13.5052 109.099 16.7522C107.293 19.9818 108.371 23.9981 111.792 25.9109C115.214 27.8237 119.199 26.6376 121.005 23.408C122.82 20.1609 121.733 16.1622 118.311 14.2494ZM117.269 16.0726C119.486 17.312 120.112 20.045 118.892 22.2271C117.673 24.4093 115.017 25.3075 112.8 24.0681C110.617 22.8482 109.991 20.1153 111.211 17.9331C112.431 15.7509 115.087 14.8527 117.269 16.0726Z" fill="white"/>
<path d="M101.085 7.1269L98.6549 6.63097L95.1131 13.5831C94.5952 14.6205 94.0917 15.9874 94.0917 15.9874C94.0917 15.9874 94.1641 14.5325 94.0941 13.3752L93.5599 5.59111L91.1496 5.09917L84.4936 17.0087L86.7667 17.4726L90.7408 10.3025C91.2623 9.34753 91.7802 8.31014 91.7802 8.31014C91.7802 8.31014 91.7914 9.45551 91.8578 10.5305L92.2928 18.6005L94.7227 19.0964L98.2853 11.8423C98.748 10.8753 99.2463 9.83394 99.2463 9.83394C99.2463 9.83394 99.2927 11.0069 99.4022 12.0703L100.249 20.2243L102.522 20.6882L101.085 7.1269Z" fill="white"/>
</svg>
