<svg width="681" height="602" viewBox="0 0 681 602" fill="none" xmlns="http://www.w3.org/2000/svg">
<g filter="url(#filter0_f_871_13945)">
<path d="M349.301 593.055C522.479 592.922 552.539 576.817 545.922 568.781L345.265 565.461L132.829 568.781C132.829 576.927 176.124 593.188 349.301 593.055Z" fill="url(#paint0_radial_871_13945)"/>
</g>
<g filter="url(#filter1_i_871_13945)">
<path d="M-0.000976562 398.293H680.999V456.255C680.999 462.196 676.183 467.012 670.242 467.012H10.7563C4.81525 467.012 -0.000976562 462.196 -0.000976562 456.255V398.293Z" fill="#AFC6D9"/>
</g>
<path fill-rule="evenodd" clip-rule="evenodd" d="M10.7563 0C4.81523 0 -0.000976562 4.81618 -0.000976562 10.7573V398.293H680.999V10.7573C680.999 4.81621 676.183 0 670.242 0H10.7563ZM665.108 15.8947H15.4239V383.334H665.108V15.8947Z" fill="#EFF0F2"/>
<path d="M259.402 467.012H421.122V566.585H259.402V467.012Z" fill="url(#paint1_linear_871_13945)"/>
<path d="M259.402 467.012H421.122V566.585H259.402V467.012Z" fill="url(#paint2_linear_871_13945)"/>
<rect x="259.402" y="566.584" width="161.72" height="7.01298" fill="url(#paint3_linear_871_13945)"/>
<path d="M262.207 573.596H282.773V574.531C282.773 574.789 282.563 574.999 282.305 574.999H262.675C262.416 574.999 262.207 574.789 262.207 574.531V573.596Z" fill="#B6CAD9"/>
<path d="M398.688 573.596H419.253V574.531C419.253 574.789 419.044 574.999 418.785 574.999H399.155C398.897 574.999 398.688 574.789 398.688 574.531V573.596Z" fill="#B6CAD9"/>
<ellipse cx="340.263" cy="7.94679" rx="2.80439" ry="2.80519" fill="black"/>
<defs>
<filter id="filter0_f_871_13945" x="124.41" y="557.042" width="430.76" height="44.4322" filterUnits="userSpaceOnUse" color-interpolation-filters="sRGB">
<feFlood flood-opacity="0" result="BackgroundImageFix"/>
<feBlend mode="normal" in="SourceGraphic" in2="BackgroundImageFix" result="shape"/>
<feGaussianBlur stdDeviation="4.20938" result="effect1_foregroundBlur_871_13945"/>
</filter>
<filter id="filter1_i_871_13945" x="-0.000976562" y="397.358" width="681.001" height="69.6551" filterUnits="userSpaceOnUse" color-interpolation-filters="sRGB">
<feFlood flood-opacity="0" result="BackgroundImageFix"/>
<feBlend mode="normal" in="SourceGraphic" in2="BackgroundImageFix" result="shape"/>
<feColorMatrix in="SourceAlpha" type="matrix" values="0 0 0 0 0 0 0 0 0 0 0 0 0 0 0 0 0 0 127 0" result="hardAlpha"/>
<feOffset dy="-0.935418"/>
<feGaussianBlur stdDeviation="0.701563"/>
<feComposite in2="hardAlpha" operator="arithmetic" k2="-1" k3="1"/>
<feColorMatrix type="matrix" values="0 0 0 0 0 0 0 0 0 0 0 0 0 0 0 0 0 0 0.39 0"/>
<feBlend mode="overlay" in2="shape" result="effect1_innerShadow_871_13945"/>
</filter>
<radialGradient id="paint0_radial_871_13945" cx="0" cy="0" r="1" gradientUnits="userSpaceOnUse" gradientTransform="translate(339.79 568.781) rotate(90) scale(24.2752 413.922)">
<stop stop-color="white" stop-opacity="0.6"/>
<stop offset="0.244792" stop-color="white" stop-opacity="0.2"/>
<stop offset="0.588542" stop-color="white" stop-opacity="0"/>
</radialGradient>
<linearGradient id="paint1_linear_871_13945" x1="340.262" y1="497.235" x2="340.262" y2="566.585" gradientUnits="userSpaceOnUse">
<stop stop-color="#AFC2D3"/>
<stop offset="0.874953" stop-color="#B1C4D4"/>
<stop offset="0.917515" stop-color="#D7E7F4"/>
<stop offset="0.934869" stop-color="#CCDFEF"/>
<stop offset="0.949518" stop-color="#B7C8D7"/>
<stop offset="0.966948" stop-color="#8598AA"/>
<stop offset="1" stop-color="#43546D"/>
</linearGradient>
<linearGradient id="paint2_linear_871_13945" x1="326.941" y1="465.372" x2="332.813" y2="522.067" gradientUnits="userSpaceOnUse">
<stop stop-color="#899DAF"/>
<stop offset="1" stop-color="#8FA2B4" stop-opacity="0"/>
</linearGradient>
<linearGradient id="paint3_linear_871_13945" x1="259.402" y1="570.324" x2="421.122" y2="570.324" gradientUnits="userSpaceOnUse">
<stop stop-color="#B3C6D7"/>
<stop offset="0.00434818" stop-color="#B7CADB"/>
<stop offset="0.00828729" stop-color="#8194A8"/>
<stop offset="0.0122617" stop-color="#75879C"/>
<stop offset="0.0204451" stop-color="#8598AB"/>
<stop offset="0.0281517" stop-color="#A8BACB"/>
<stop offset="0.0366809" stop-color="#CEDBE8"/>
<stop offset="0.0486072" stop-color="#CFE2F2"/>
<stop offset="0.0581928" stop-color="#C3D6E7"/>
<stop offset="0.085429" stop-color="#A7BACB"/>
<stop offset="0.255078" stop-color="#B7CADB"/>
<stop offset="0.388037" stop-color="#B8CADA"/>
<stop offset="0.896611" stop-color="#A4B7C8"/>
<stop offset="0.935298" stop-color="#B8CBDC"/>
<stop offset="0.951335" stop-color="#DBEDFD"/>
<stop offset="0.960898" stop-color="#CFE1F2"/>
<stop offset="0.973118" stop-color="#A5B7CA"/>
<stop offset="0.983604" stop-color="#72859A"/>
<stop offset="0.987488" stop-color="#768798"/>
<stop offset="0.995826" stop-color="#B3C6D7"/>
</linearGradient>
</defs>
</svg>
