<svg width="215" height="22" viewBox="0 0 215 22" fill="none" xmlns="http://www.w3.org/2000/svg">
<path d="M7.78882 21.288C12.1568 21.288 14.9408 18.456 14.9408 13.728V1.224H10.1168V13.872C10.1168 15.528 9.51682 16.632 7.78882 16.632C6.10882 16.632 5.50882 15.528 5.50882 13.872H0.660824C0.660824 18.576 3.46882 21.288 7.78882 21.288ZM27.2337 21.36C31.9617 21.36 35.7537 18.384 37.0017 14.328H31.7937C30.9297 15.888 29.2017 16.944 27.2097 16.944C24.3057 16.944 22.0737 15 21.7137 12.504H37.3617C38.2977 6.384 33.4737 0.839999 27.2337 0.839999C21.2817 0.839999 16.9617 5.616 16.9617 11.088C16.9617 16.584 21.2817 21.36 27.2337 21.36ZM22.0017 8.904C22.6737 6.84 24.6897 5.328 27.1857 5.328C29.6817 5.328 31.7217 6.816 32.3457 8.904H22.0017ZM37.8606 21.264C41.8926 21.264 44.7726 18.552 44.7726 14.16V8.04C44.7726 6.552 45.5166 5.832 46.9086 5.832V0.983999C42.8526 1.032 39.9486 3.552 39.9486 7.968V14.16C39.9486 15.72 39.2286 16.416 37.8606 16.416V21.264ZM46.72 21.264C50.752 21.264 53.632 18.552 53.632 14.16V8.04C53.632 6.552 54.376 5.832 55.768 5.832V0.983999C51.712 1.032 48.808 3.552 48.808 7.968V14.16C48.808 15.72 48.088 16.416 46.72 16.416V21.264ZM57.7855 21H62.6335V1.272H57.7855V21ZM75.1634 21.168V16.344C72.0194 16.344 69.7394 13.992 69.7394 11.112C69.7394 8.232 72.0194 5.88 75.1634 5.88V1.032C69.4034 1.032 64.8914 5.616 64.8914 11.112C64.8914 16.608 69.4034 21.168 75.1634 21.168ZM90.0473 21H94.9913L87.9113 1.248H82.9193L75.7193 21H80.7833L81.5993 18.552H89.2313L90.0473 21ZM82.8473 14.784L85.4153 6.984L87.9833 14.784H82.8473ZM102.739 21H108.307C113.683 21 116.179 18.576 116.179 14.664C116.179 12.672 115.171 11.016 113.443 10.296C114.523 9.6 115.267 8.328 115.267 6.624C115.267 2.976 112.939 1.224 108.235 1.224H102.739V21ZM107.275 9V5.304H108.331C109.867 5.304 110.755 5.76 110.755 7.2C110.755 8.52 109.843 9 108.331 9H107.275ZM107.275 16.608V12.456H108.331C110.227 12.456 111.283 13.032 111.283 14.568C111.283 16.128 110.227 16.608 108.163 16.608H107.275ZM125.146 21.312C129.658 21.312 132.442 18.24 132.442 13.464V1.224H127.594V13.632C127.594 15.288 127.018 16.632 125.146 16.632C123.274 16.632 122.698 15.288 122.698 13.632V1.224H117.85V13.464C117.85 18.216 120.634 21.312 125.146 21.312ZM149.646 21L146.646 15.192C148.374 13.704 149.166 11.472 149.166 9.144C149.166 5.04 146.742 1.224 140.214 1.224H135.27V21.024H140.094V17.088H140.91C141.438 17.088 141.942 17.064 142.398 16.992L144.054 21H149.646ZM140.094 12.384V5.928H141.054C143.262 5.928 144.438 7.272 144.438 9.144C144.438 10.992 143.286 12.384 141.054 12.384H140.094ZM165.747 21L162.747 15.192C164.475 13.704 165.267 11.472 165.267 9.144C165.267 5.04 162.843 1.224 156.315 1.224H151.371V21.024H156.195V17.088H157.011C157.539 17.088 158.043 17.064 158.499 16.992L160.155 21H165.747ZM156.195 12.384V5.928H157.155C159.363 5.928 160.539 7.272 160.539 9.144C160.539 10.992 159.387 12.384 157.155 12.384H156.195ZM187.294 11.088C187.294 5.616 182.998 0.839999 177.046 0.839999C171.07 0.839999 166.774 5.616 166.774 11.088C166.774 16.584 171.07 21.36 177.046 21.36C182.998 21.36 187.294 16.584 187.294 11.088ZM182.446 11.088C182.446 14.04 180.166 16.512 177.046 16.512C173.902 16.512 171.622 14.04 171.622 11.088C171.622 8.136 173.902 5.688 177.046 5.688C180.166 5.688 182.446 8.136 182.446 11.088ZM193.526 21H198.542L201.158 12.528L203.606 21H208.622L214.934 1.248H209.822L206.03 14.256L203.486 5.88L205.046 1.248H199.958L196.142 14.256L192.254 1.248H187.118L193.526 21Z" fill="white"/>
</svg>
