<svg width="92" height="37" viewBox="0 0 92 37" fill="none" xmlns="http://www.w3.org/2000/svg">
<path d="M6.36414 16.4783C9.85659 16.4783 12.0826 14.214 12.0826 10.4337V0.436043H8.2255V10.5488C8.2255 11.8729 7.74577 12.7556 6.36414 12.7556C5.02088 12.7556 4.54115 11.8729 4.54115 10.5488H0.664907C0.664907 14.3099 2.91006 16.4783 6.36414 16.4783ZM21.9114 16.5359C25.6917 16.5359 28.7236 14.1564 29.7214 10.9134H25.5574C24.8665 12.1607 23.4849 13.0051 21.8922 13.0051C19.5703 13.0051 17.7857 11.4507 17.4978 9.45503H30.0093C30.7577 4.56175 26.9006 0.129015 21.9114 0.129015C17.1524 0.129015 13.6984 3.94769 13.6984 8.32286C13.6984 12.7172 17.1524 16.5359 21.9114 16.5359ZM17.7281 6.57663C18.2654 4.92635 19.8773 3.71742 21.873 3.71742C23.8687 3.71742 25.4998 4.90716 25.9987 6.57663H17.7281ZM30.4082 16.4591C33.632 16.4591 35.9347 14.2907 35.9347 10.7791V5.88581C35.9347 4.69607 36.5296 4.12039 37.6426 4.12039V0.24415C34.3996 0.282529 32.0777 2.29741 32.0777 5.82824V10.7791C32.0777 12.0264 31.502 12.5829 30.4082 12.5829V16.4591ZM37.4918 16.4591C40.7156 16.4591 43.0183 14.2907 43.0183 10.7791V5.88581C43.0183 4.69607 43.6132 4.12039 44.7261 4.12039V0.24415C41.4831 0.282529 39.1612 2.29741 39.1612 5.82824V10.7791C39.1612 12.0264 38.5856 12.5829 37.4918 12.5829V16.4591ZM46.3392 16.248H50.2155V0.474423H46.3392V16.248ZM60.2338 16.3824V12.5253C57.72 12.5253 55.897 10.6448 55.897 8.34205C55.897 6.03933 57.72 4.15877 60.2338 4.15877V0.282529C55.6284 0.282529 52.0208 3.94769 52.0208 8.34205C52.0208 12.7364 55.6284 16.3824 60.2338 16.3824ZM72.1343 16.248H76.0873L70.4265 0.455233H66.4351L60.6783 16.248H64.7273L65.3797 14.2907H71.4819L72.1343 16.248ZM66.3775 11.278L68.4308 5.04148L70.4841 11.278H66.3775ZM1.72032 36.248H6.17224C10.4707 36.248 12.4663 34.3099 12.4663 31.1821C12.4663 29.5894 11.6604 28.2653 10.2788 27.6896C11.1423 27.1331 11.7371 26.1161 11.7371 24.7536C11.7371 21.8369 9.87578 20.436 6.11467 20.436H1.72032V36.248ZM5.3471 26.6534V23.6982H6.19143C7.41955 23.6982 8.12955 24.0628 8.12955 25.2142C8.12955 26.2696 7.40036 26.6534 6.19143 26.6534H5.3471ZM5.3471 32.7364V29.4166H6.19143C7.70739 29.4166 8.55172 29.8772 8.55172 31.1053C8.55172 32.3526 7.70739 32.7364 6.05711 32.7364H5.3471ZM19.6364 36.4975C23.244 36.4975 25.47 34.0413 25.47 30.2226V20.436H21.5937V30.3569C21.5937 31.681 21.1332 32.7556 19.6364 32.7556C18.1396 32.7556 17.6791 31.681 17.6791 30.3569V20.436H13.8028V30.2226C13.8028 34.0221 16.0288 36.4975 19.6364 36.4975ZM39.2253 36.248L36.8266 31.6042C38.2082 30.4145 38.8415 28.6299 38.8415 26.7685C38.8415 23.4871 36.9033 20.436 31.6838 20.436H27.7308V36.2672H31.5879V33.1202H32.2403C32.6625 33.1202 33.0655 33.101 33.4301 33.0434L34.7541 36.248H39.2253ZM31.5879 29.3591V24.1972H32.3555C34.1209 24.1972 35.0612 25.2718 35.0612 26.7685C35.0612 28.2461 34.1401 29.3591 32.3555 29.3591H31.5879ZM52.0993 36.248L49.7007 31.6042C51.0823 30.4145 51.7156 28.6299 51.7156 26.7685C51.7156 23.4871 49.7774 20.436 44.5579 20.436H40.6049V36.2672H44.462V33.1202H45.1144C45.5366 33.1202 45.9396 33.101 46.3042 33.0434L47.6282 36.248H52.0993ZM44.462 29.3591V24.1972H45.2296C46.995 24.1972 47.9353 25.2718 47.9353 26.7685C47.9353 28.2461 47.0142 29.3591 45.2296 29.3591H44.462ZM69.3272 28.3229C69.3272 23.9477 65.8923 20.129 61.1333 20.129C56.3552 20.129 52.9203 23.9477 52.9203 28.3229C52.9203 32.7172 56.3552 36.5359 61.1333 36.5359C65.8923 36.5359 69.3272 32.7172 69.3272 28.3229ZM65.4509 28.3229C65.4509 30.6831 63.6279 32.6596 61.1333 32.6596C58.6195 32.6596 56.7965 30.6831 56.7965 28.3229C56.7965 25.9626 58.6195 24.0053 61.1333 24.0053C63.6279 24.0053 65.4509 25.9626 65.4509 28.3229ZM74.3096 36.248H78.3202L80.4118 29.4742L82.3692 36.248H86.3797L91.4265 20.4552H87.3392L84.3073 30.8558L82.2732 24.1588L83.5205 20.4552H79.4524L76.4013 30.8558L73.2926 20.4552H69.1861L74.3096 36.248Z" fill="white"/>
</svg>
