<svg width="55" height="55" viewBox="0 0 50 50" fill="none" xmlns="http://www.w3.org/2000/svg" style="overflow:visible">
<path   fill="currentColor" fill-rule="evenodd" clip-rule="evenodd" d="M27.021 47L15.2047 33.0644C15.0405 32.8552 14.878 32.6446 14.7173 32.4327C12.6988 29.7739 11.6084 26.5263 11.6133 23.1881C11.6133 19.1017 13.2366 15.1827 16.1261 12.2932C19.0156 9.4037 22.9346 7.7804 27.021 7.7804C31.1074 7.7804 35.0264 9.4037 37.9159 12.2932C40.8054 15.1827 42.4287 19.1017 42.4287 23.1881C42.4336 26.5248 41.3437 29.7709 39.3262 32.4285L39.3248 32.4327C39.3248 32.4327 38.9046 32.9846 38.8415 33.0588L27.021 47ZM16.9528 30.7449C16.9541 30.7449 17.0232 30.8357 17.1048 30.943L17.1048 30.9431C17.2011 31.0695 17.3146 31.2187 17.3548 31.2687L27.021 42.6691L36.6998 31.2533C36.7464 31.1951 36.9448 30.9331 37.0397 30.8078L37.0404 30.8069L37.0906 30.7407C38.7395 28.5684 39.6306 25.9153 39.6273 23.1881C39.6273 19.8447 38.2992 16.6382 35.935 14.2741C33.5709 11.91 30.3644 10.5818 27.021 10.5818C23.6776 10.5818 20.4711 11.91 18.107 14.2741C15.7429 16.6382 14.4147 19.8447 14.4147 23.1881C14.4118 25.917 15.3038 28.5716 16.9542 30.7449H16.9528ZM32.436 32.8797H29.6346V30.0783H24.0318V32.8797H21.2304V30.0783C21.2311 29.3356 21.5265 28.6234 22.0517 28.0982C22.5769 27.573 23.289 27.2776 24.0318 27.2769H29.6346C30.3773 27.2776 31.0895 27.573 31.6147 28.0982C32.1399 28.6234 32.4353 29.3356 32.436 30.0783V32.8797ZM24.4987 25.1681C25.1898 25.6298 26.0022 25.8762 26.8333 25.8762C27.9474 25.8751 29.0156 25.4321 29.8034 24.6442C30.5912 23.8564 31.0343 22.7883 31.0354 21.6741C31.0354 20.843 30.7889 20.0306 30.3272 19.3396C29.8655 18.6485 29.2092 18.1099 28.4414 17.7919C27.6735 17.4739 26.8286 17.3906 26.0135 17.5528C25.1984 17.7149 24.4496 18.1151 23.862 18.7028C23.2743 19.2905 22.8741 20.0392 22.7119 20.8543C22.5498 21.6695 22.633 22.5144 22.9511 23.2822C23.2691 24.05 23.8077 24.7063 24.4987 25.1681ZM26.0551 20.5095C26.2854 20.3556 26.5563 20.2734 26.8333 20.2734C27.2047 20.2738 27.5607 20.4215 27.8233 20.6841C28.0859 20.9467 28.2336 21.3028 28.234 21.6741C28.234 21.9512 28.1518 22.222 27.9979 22.4523C27.844 22.6827 27.6253 22.8622 27.3693 22.9682C27.1134 23.0742 26.8317 23.102 26.56 23.0479C26.2883 22.9939 26.0387 22.8605 25.8428 22.6646C25.647 22.4687 25.5136 22.2191 25.4595 21.9474C25.4055 21.6757 25.4332 21.3941 25.5392 21.1381C25.6452 20.8822 25.8248 20.6634 26.0551 20.5095Z" fill="url(#paint0_linear_657_23762)"/>
<defs>
<linearGradient id="paint0_linear_657_23762" x1="42.4287" y1="27.3902" x2="11.6133" y2="27.3902" gradientUnits="userSpaceOnUse">
<stop stop-color="#C172FF"/>
<stop offset="1" stop-color="#8D34FE"/>
</linearGradient>
</defs>
</svg>
    