<svg width="163" height="35" viewBox="0 0 163 35" fill="none" xmlns="http://www.w3.org/2000/svg">
<g opacity="0.6" filter="url(#filter0_f_852_5188)">
<path d="M36.0744 20.8685V21.4473C36.0744 27.5981 32.6802 31.2707 26.9919 31.2707C24.9667 31.2707 23.2246 30.804 21.8281 29.9195C22.59 29.0353 23.2055 28.0349 23.6513 26.9562C24.4637 27.5129 25.5502 27.8507 26.9919 27.8507C31.5889 27.8507 32.5544 24.3665 32.5544 21.4484V20.8696C32.5544 17.9468 31.5889 14.4625 26.9919 14.4625C26.1074 14.4625 25.3571 14.5883 24.7199 14.8172C23.2467 15.3396 22.3927 16.3988 21.9207 17.6332V12.3363C22.7832 11.8167 23.7309 11.454 24.7199 11.2651C25.4679 11.1157 26.2291 11.0419 26.9919 11.0446C32.6802 11.0446 36.0744 14.7172 36.0744 20.8685Z" fill="url(#paint0_linear_852_5188)"/>
</g>
<g opacity="0.6" filter="url(#filter1_f_852_5188)">
<path d="M18.2379 3.41211V21.4478C18.2379 22.2897 18.1569 23.1763 17.928 24.016C17.3761 26.0854 15.9349 27.8502 12.6438 27.8502C7.82363 27.8233 7.02018 24.1055 7.08332 20.9985H3.56331C2.5173 30.2589 13.342 34.4456 19.2776 28.7167C19.4901 28.5146 19.6839 28.2936 19.8564 28.0564C20.7272 26.8626 21.257 25.1025 21.5627 23.0505C21.8006 21.4252 21.9037 19.6115 21.931 17.7479V3.41211H18.2379Z" fill="white"/>
</g>
<path d="M36.0744 20.8685V21.4473C36.0744 27.5981 32.6802 31.2707 26.9919 31.2707C24.9667 31.2707 23.2246 30.804 21.8281 29.9195C22.59 29.0353 23.2055 28.0349 23.6513 26.9562C24.4637 27.5129 25.5502 27.8507 26.9919 27.8507C31.5889 27.8507 32.5544 24.3665 32.5544 21.4484V20.8696C32.5544 17.9468 31.5889 14.4625 26.9919 14.4625C26.1074 14.4625 25.3571 14.5883 24.7199 14.8172C23.2467 15.3396 22.3927 16.3988 21.9207 17.6332V12.3363C22.7832 11.8167 23.7309 11.454 24.7199 11.2651C25.4679 11.1157 26.2291 11.0419 26.9919 11.0446C32.6802 11.0446 36.0744 14.7172 36.0744 20.8685Z" fill="url(#paint1_linear_852_5188)"/>
<path d="M18.2379 3.41211V21.4478C18.2379 22.2897 18.1569 23.1763 17.928 24.016C17.3761 26.0854 15.9349 27.8502 12.6438 27.8502C7.82363 27.8233 7.02018 24.1055 7.08332 20.9985H3.56331C2.5173 30.2589 13.342 34.4456 19.2776 28.7167C19.4901 28.5146 19.6838 28.2936 19.8564 28.0564C20.7272 26.8626 21.257 25.1025 21.5627 23.0505C21.8006 21.4252 21.9037 19.6115 21.931 17.7479V3.41211H18.2379Z" fill="white"/>
<path d="M48.8193 25.3929C49.927 24.8146 50.4616 23.6402 50.4616 22.0541V14.6331H51.9654V21.8875C51.9654 24.2519 51.0155 25.6962 49.3539 26.4446L48.8193 25.3929ZM50.1864 12.2372C50.1848 12.1174 50.2069 11.9984 50.2515 11.8872C50.2961 11.776 50.3622 11.6747 50.4461 11.5891C50.53 11.5036 50.6301 11.4355 50.7404 11.3888C50.8508 11.3421 50.9693 11.3177 51.0891 11.317C51.3298 11.3221 51.5589 11.4212 51.7273 11.5933C51.8957 11.7653 51.99 11.9964 51.99 12.2372C51.989 12.4758 51.8938 12.7044 51.7251 12.8732C51.5563 13.0419 51.3277 13.1372 51.0891 13.1381C50.97 13.1395 50.8518 13.1171 50.7416 13.0721C50.6313 13.0271 50.5312 12.9605 50.447 12.8762C50.3629 12.7919 50.2965 12.6917 50.2518 12.5813C50.207 12.471 50.1848 12.3527 50.1864 12.2337V12.2372Z" fill="white"/>
<path d="M53.7231 19.2586C53.7231 16.7137 55.6353 14.6753 58.1452 14.6753C60.4903 14.6753 62.3517 16.6962 62.3517 19.2043C62.3517 19.4584 62.3149 19.7301 62.3149 19.7459H55.1481C55.3654 21.4986 56.7255 22.5975 58.3433 22.5975C59.3258 22.6022 60.2804 22.2714 61.0494 21.6598L61.6453 22.6694C60.6998 23.416 59.5305 23.8228 58.3257 23.8244C55.8351 23.8244 53.7231 22.0384 53.7231 19.2586ZM60.9968 18.5435C60.8514 16.9188 59.607 15.7392 58.0716 15.7392C56.5748 15.7392 55.3479 16.8942 55.1481 18.5435H60.9968Z" fill="white"/>
<path d="M63.8315 22.3398L64.3907 21.2216C64.7686 21.5946 65.2168 21.8887 65.7093 22.087C66.2019 22.2853 66.7289 22.3837 67.2598 22.3766C68.4692 22.3766 69.4612 21.8158 69.4612 21.0218C69.4612 20.1016 68.3973 19.8493 67.3317 19.5793C65.7069 19.164 64.2277 18.703 64.2277 17.0344C64.2277 15.4465 65.8875 14.5246 67.3685 14.5246C68.4422 14.5063 69.4929 14.8358 70.3639 15.464L69.8223 16.5822C69.1098 16.0803 68.2575 15.8154 67.386 15.8251C66.4834 15.8251 65.6333 16.3298 65.6333 17.0151C65.6333 17.8827 66.6078 18.0808 67.6367 18.2964C69.2246 18.6574 70.8669 19.2533 70.8669 20.9868C70.8669 22.8446 68.9722 23.6754 67.2581 23.6754C65.4721 23.6754 64.3363 22.8639 63.8315 22.3398Z" fill="white"/>
<path d="M72.2949 22.3399L72.854 21.2217C73.2316 21.594 73.6793 21.8878 74.1712 22.0861C74.6631 22.2844 75.1894 22.3831 75.7197 22.3767C76.9291 22.3767 77.9228 21.8158 77.9228 21.0218C77.9228 20.1017 76.8572 19.8493 75.7916 19.5794C74.1686 19.164 72.6875 18.703 72.6875 17.0345C72.6875 15.4465 74.3491 14.5246 75.8284 14.5246C76.9021 14.5059 77.953 14.8355 78.8237 15.464L78.2839 16.5823C77.5713 16.0806 76.719 15.8157 75.8476 15.8251C74.945 15.8251 74.0949 16.3299 74.0949 17.0152C74.0949 17.8828 75.0694 18.0808 76.0983 18.2964C77.6862 18.6575 79.3285 19.2534 79.3285 20.9868C79.3285 22.8446 77.4338 23.6754 75.7179 23.6754C73.9372 23.6754 72.7997 22.8639 72.2949 22.3399Z" fill="white"/>
<path d="M81.0128 12.2338C81.0112 12.114 81.0333 11.9951 81.0778 11.8838C81.1224 11.7726 81.1886 11.6713 81.2725 11.5858C81.3564 11.5002 81.4564 11.4321 81.5667 11.3854C81.6771 11.3387 81.7956 11.3143 81.9154 11.3137C82.1592 11.3146 82.3927 11.4118 82.5651 11.5842C82.7374 11.7566 82.8347 11.9901 82.8356 12.2338C82.8347 12.3535 82.8101 12.4718 82.7633 12.582C82.7165 12.6921 82.6484 12.7919 82.5629 12.8756C82.4773 12.9594 82.3761 13.0254 82.265 13.0698C82.1539 13.1143 82.0351 13.1363 81.9154 13.1347C81.7966 13.1361 81.6788 13.1138 81.5687 13.069C81.4587 13.0243 81.3587 12.958 81.2746 12.8741C81.1906 12.7902 81.1241 12.6903 81.0791 12.5804C81.0342 12.4704 81.0116 12.3526 81.0128 12.2338ZM81.1442 14.6333H82.648V23.3565H81.153L81.1442 14.6333Z" fill="white"/>
<path d="M84.5499 19.1094C84.5463 18.5034 84.6637 17.9028 84.8951 17.3427C85.1264 16.7826 85.4672 16.2743 85.8974 15.8475C86.3277 15.4207 86.8387 15.084 87.4006 14.8571C87.9625 14.6302 88.5641 14.5177 89.17 14.5261C90.3255 14.5164 91.4437 14.9347 92.3091 15.7004L91.4432 16.6749C90.8213 16.1282 90.0152 15.8376 89.1875 15.8617C87.3472 15.8617 85.9573 17.234 85.9573 19.1112C85.9573 20.934 87.2929 22.3414 89.2243 22.3414C90.1584 22.354 91.0597 21.9975 91.7324 21.3494L92.5264 22.3782C91.6167 23.2273 90.4143 23.6925 89.17 23.677C88.5654 23.6853 87.9652 23.5733 87.4043 23.3474C86.8434 23.1214 86.3331 22.7862 85.9031 22.3611C85.4731 21.9359 85.132 21.4295 84.8997 20.8712C84.6673 20.313 84.5484 19.7141 84.5499 19.1094Z" fill="white"/>
<path d="M92.8228 19.0025C92.8228 16.4418 94.7034 14.4455 97.3798 14.4455C98.9221 14.4455 100.288 15.0204 101.001 16.1474V14.626H102.505V23.3492H101.001V21.8261C100.288 22.9724 98.9221 23.528 97.3798 23.528C94.7034 23.535 92.8228 21.5369 92.8228 19.0025ZM101.06 19.1094C101.06 17.2691 99.7424 15.8599 98.0651 15.8599C96.3124 15.8599 95.0136 17.2323 95.0136 19.1094C95.0136 20.9866 96.3141 22.3397 98.0651 22.3397C99.7459 22.3397 101.064 20.9498 101.064 19.1094H101.06Z" fill="white"/>
<path d="M117.536 19.006C117.536 21.5509 115.75 23.4999 113.277 23.4999C111.689 23.4999 110.281 22.5447 109.72 21.2442V23.3475H109.119V11.6237H109.722V16.6784C110.052 16.0207 110.561 15.469 111.19 15.0862C111.819 14.7035 112.542 14.5052 113.278 14.5139C115.75 14.5139 117.536 16.4436 117.536 19.006ZM113.227 22.8322C115.322 22.8322 116.819 21.2092 116.819 19.006C116.819 16.8029 115.268 15.1816 113.247 15.1816C111.226 15.1816 109.708 16.8765 109.708 19.006C109.708 21.1356 111.256 22.8322 113.227 22.8322Z" fill="white"/>
<path d="M119.647 20.2348V14.6261H120.249V20.1121C120.249 22.0067 121.186 22.7657 122.797 22.7657C124.55 22.7657 125.663 21.1216 125.663 19.6967V14.6331H126.264V23.3563H125.964V21.5861C125.396 22.9182 124.078 23.5386 122.851 23.5386C120.874 23.5386 119.647 22.6079 119.647 20.2348Z" fill="white"/>
<path d="M128.972 14.633H129.878V16.5996C130.579 15.1553 131.911 14.4525 133.487 14.4525V15.1729C131.307 15.1729 129.878 16.7801 129.878 18.6923V23.3562H128.976L128.972 14.633Z" fill="white"/>
<path d="M134.989 14.633H135.59V16.5996C136.292 15.1553 137.624 14.4525 139.199 14.4525V15.1729C137.019 15.1729 135.59 16.7801 135.59 18.6923V23.3562H134.989V14.633Z" fill="white"/>
<path d="M140.369 19.006C140.369 18.1172 140.632 17.2484 141.126 16.5094C141.62 15.7703 142.322 15.1943 143.143 14.8542C143.964 14.5141 144.867 14.4251 145.739 14.5985C146.611 14.7719 147.412 15.1999 148.04 15.8284C148.669 16.4568 149.097 17.2576 149.27 18.1293C149.443 19.0011 149.354 19.9046 149.014 20.7258C148.674 21.5469 148.098 22.2488 147.359 22.7426C146.62 23.2364 145.751 23.5 144.862 23.5C144.27 23.5077 143.682 23.3968 143.134 23.1737C142.585 22.9506 142.086 22.6199 141.667 22.201C141.249 21.7822 140.918 21.2837 140.695 20.7349C140.472 20.1862 140.361 19.5983 140.369 19.006ZM148.634 19.006C148.634 16.8415 146.992 15.1816 144.862 15.1816C142.733 15.1816 141.096 16.8415 141.096 19.006C141.096 21.1706 142.738 22.8322 144.868 22.8322C146.997 22.8322 148.633 21.1724 148.633 19.006H148.634Z" fill="white"/>
<path d="M150.132 14.6332H150.819L153.263 21.3828C153.363 21.662 153.448 21.9463 153.517 22.2346C153.517 22.2346 153.608 21.835 153.752 21.4021L156.086 14.6332H156.612L158.927 21.4021C159.073 21.835 159.182 22.2346 159.182 22.2346C159.251 21.9463 159.336 21.662 159.436 21.3828L161.879 14.6332H162.566L159.436 23.3564H158.927L156.593 16.605C156.484 16.2544 156.34 15.7286 156.34 15.7286C156.34 15.7286 156.214 16.2544 156.106 16.605L153.752 23.3564H153.263L150.132 14.6332Z" fill="white"/>
<defs>
<filter id="filter0_f_852_5188" x="19.3049" y="8.52134" width="19.2925" height="25.2726" filterUnits="userSpaceOnUse" color-interpolation-filters="sRGB">
<feFlood flood-opacity="0" result="BackgroundImageFix"/>
<feBlend mode="normal" in="SourceGraphic" in2="BackgroundImageFix" result="shape"/>
<feGaussianBlur stdDeviation="1.26159" result="effect1_foregroundBlur_852_5188"/>
</filter>
<filter id="filter1_f_852_5188" x="0.969488" y="0.888922" width="23.4849" height="32.9646" filterUnits="userSpaceOnUse" color-interpolation-filters="sRGB">
<feFlood flood-opacity="0" result="BackgroundImageFix"/>
<feBlend mode="normal" in="SourceGraphic" in2="BackgroundImageFix" result="shape"/>
<feGaussianBlur stdDeviation="1.26159" result="effect1_foregroundBlur_852_5188"/>
</filter>
<linearGradient id="paint0_linear_852_5188" x1="18.631" y1="18.5512" x2="35.9779" y2="18.5512" gradientUnits="userSpaceOnUse">
<stop stop-color="white" stop-opacity="0"/>
<stop offset="0.755208" stop-color="white"/>
</linearGradient>
<linearGradient id="paint1_linear_852_5188" x1="18.631" y1="18.5512" x2="35.9779" y2="18.5512" gradientUnits="userSpaceOnUse">
<stop stop-color="white" stop-opacity="0"/>
<stop offset="0.755208" stop-color="white"/>
</linearGradient>
</defs>
</svg>
