<svg viewBox="0 0 22 17" xmlns="http://www.w3.org/2000/svg">
<path fill="currentColor" d="M20.2348 0.845703H1.96178C1.55792 0.845703 1.1706 1.00614 0.88503 1.29171C0.599458 1.57728 0.439026 1.9646 0.439026 2.36846V14.5505C0.439026 14.9543 0.599458 15.3417 0.88503 15.6272C1.1706 15.9128 1.55792 16.0732 1.96178 16.0732H20.2348C20.6387 16.0732 21.026 15.9128 21.3116 15.6272C21.5971 15.3417 21.7576 14.9543 21.7576 14.5505V2.36846C21.7576 1.9646 21.5971 1.57728 21.3116 1.29171C21.026 1.00614 20.6387 0.845703 20.2348 0.845703ZM18.5598 2.36846L11.0983 7.53059L3.63681 2.36846H18.5598ZM1.96178 14.5505V3.06131L10.6643 9.0838C10.7918 9.17222 10.9432 9.2196 11.0983 9.2196C11.2534 9.2196 11.4048 9.17222 11.5323 9.0838L20.2348 3.06131V14.5505H1.96178Z" fill="#C275FF"/>
</svg>
