<svg width="101" height="84" viewBox="0 0 101 84" fill="none" xmlns="http://www.w3.org/2000/svg">
<g opacity="0.6" filter="url(#filter0_f_847_13975)">
<path d="M79.8756 37.0412V38.1035C79.8756 49.3933 73.6454 56.1343 63.2046 56.1343C59.4873 56.1343 56.2897 55.2777 53.7266 53.6542C55.1249 52.0312 56.2547 50.1949 57.0729 48.215C58.5641 49.2368 60.5584 49.8568 63.2046 49.8568C71.6424 49.8568 73.4146 43.4616 73.4146 38.1054V37.0431C73.4146 31.6783 71.6424 25.283 63.2046 25.283C61.5811 25.283 60.2039 25.5138 59.0344 25.9339C56.3303 26.8929 54.7628 28.837 53.8965 31.1027V21.3804C55.4796 20.4266 57.2191 19.7609 59.0344 19.4141C60.4074 19.14 61.8045 19.0044 63.2046 19.0094C73.6454 19.0094 79.8756 25.7504 79.8756 37.0412Z" fill="url(#paint0_linear_847_13975)"/>
</g>
<g opacity="0.6" filter="url(#filter1_f_847_13975)">
<path d="M47.1375 5V38.1044C47.1375 39.6496 46.9888 41.2769 46.5687 42.8183C45.5556 46.6166 42.9104 49.8558 36.8695 49.8558C28.0222 49.8066 26.5475 42.9825 26.6634 37.2797H20.2024C18.2825 54.2771 38.1511 61.9617 49.0459 51.4464C49.4359 51.0754 49.7915 50.6697 50.1082 50.2344C51.7066 48.0431 52.6791 44.8126 53.2402 41.0461C53.6767 38.0629 53.866 34.7339 53.9162 31.3132V5H47.1375Z" fill="white"/>
</g>
<path d="M79.8756 37.0412V38.1035C79.8756 49.3933 73.6454 56.1343 63.2046 56.1343C59.4873 56.1343 56.2897 55.2777 53.7266 53.6542C55.1249 52.0312 56.2547 50.1949 57.0729 48.215C58.5641 49.2368 60.5584 49.8568 63.2046 49.8568C71.6424 49.8568 73.4146 43.4616 73.4146 38.1054V37.0431C73.4146 31.6783 71.6424 25.283 63.2046 25.283C61.5811 25.283 60.2039 25.5138 59.0344 25.9339C56.3303 26.8929 54.7628 28.837 53.8965 31.1027V21.3804C55.4796 20.4266 57.2191 19.7609 59.0344 19.4141C60.4074 19.14 61.8045 19.0044 63.2046 19.0094C73.6454 19.0094 79.8756 25.7504 79.8756 37.0412Z" fill="url(#paint1_linear_847_13975)"/>
<path d="M47.1375 5V38.1044C47.1375 39.6496 46.9888 41.277 46.5687 42.8183C45.5556 46.6167 42.9104 49.8558 36.8695 49.8558C28.0222 49.8066 26.5475 42.9825 26.6634 37.2797H20.2024C18.2825 54.2771 38.1511 61.9617 49.0459 51.4464C49.4359 51.0754 49.7915 50.6697 50.1082 50.2344C51.7066 48.0431 52.6791 44.8126 53.2402 41.0461C53.6767 38.0629 53.866 34.7339 53.9162 31.3132V5H47.1375Z" fill="white"/>
<path d="M0 82.551C0.983573 82.0374 1.45824 80.9947 1.45824 79.5863V72.997H2.79353V79.4384C2.79353 81.5379 1.95003 82.8203 0.474668 83.4848L0 82.551ZM1.2139 70.8695C1.21246 70.7632 1.2321 70.6575 1.27167 70.5588C1.31125 70.46 1.36998 70.3701 1.44449 70.2941C1.519 70.2181 1.6078 70.1577 1.70579 70.1162C1.80377 70.0748 1.90899 70.0531 2.01539 70.0525C2.2291 70.057 2.43255 70.145 2.5821 70.2978C2.73164 70.4505 2.81537 70.6558 2.81532 70.8695C2.8145 71.0814 2.72996 71.2844 2.58012 71.4343C2.43028 71.5841 2.22729 71.6687 2.01539 71.6695C1.90966 71.6707 1.80474 71.6508 1.70683 71.6109C1.60892 71.5709 1.52 71.5118 1.4453 71.437C1.3706 71.3621 1.31164 71.2731 1.2719 71.1751C1.23216 71.0771 1.21244 70.9722 1.2139 70.8664V70.8695Z" fill="white"/>
<path d="M4.354 77.1039C4.354 74.8441 6.05191 73.0342 8.28051 73.0342C10.3628 73.0342 12.0156 74.8286 12.0156 77.0556C12.0156 77.2813 11.9829 77.5225 11.9829 77.5365H5.61926C5.81224 79.0928 7.01992 80.0686 8.45637 80.0686C9.32877 80.0727 10.1765 79.779 10.8593 79.236L11.3884 80.1324C10.5488 80.7953 9.51059 81.1566 8.44081 81.158C6.22933 81.158 4.354 79.5721 4.354 77.1039ZM10.8126 76.4689C10.6834 75.0262 9.57845 73.9788 8.21515 73.9788C6.88608 73.9788 5.79668 75.0044 5.61926 76.4689H10.8126Z" fill="white"/>
<path d="M13.3301 79.8398L13.8265 78.8469C14.1621 79.178 14.5601 79.4392 14.9974 79.6153C15.4348 79.7913 15.9028 79.8788 16.3742 79.8725C17.448 79.8725 18.3289 79.3744 18.3289 78.6695C18.3289 77.8524 17.3842 77.6283 16.438 77.3886C14.9953 77.0198 13.6818 76.6105 13.6818 75.1289C13.6818 73.7189 15.1556 72.9003 16.4707 72.9003C17.424 72.8841 18.357 73.1767 19.1304 73.7345L18.6495 74.7274C18.0169 74.2817 17.26 74.0465 16.4862 74.0551C15.6847 74.0551 14.9299 74.5033 14.9299 75.1118C14.9299 75.8821 15.7952 76.058 16.7088 76.2494C18.1188 76.57 19.577 77.0992 19.577 78.6383C19.577 80.288 17.8947 81.0257 16.3726 81.0257C14.7868 81.0257 13.7783 80.3051 13.3301 79.8398Z" fill="white"/>
<path d="M20.8447 79.8398L21.3412 78.8469C21.6765 79.1775 22.074 79.4384 22.5108 79.6145C22.9475 79.7905 23.4148 79.8782 23.8857 79.8725C24.9595 79.8725 25.842 79.3745 25.842 78.6695C25.842 77.8524 24.8957 77.6283 23.9495 77.3887C22.5084 77.0198 21.1933 76.6105 21.1933 75.1289C21.1933 73.7189 22.6687 72.9003 23.9822 72.9003C24.9356 72.8838 25.8687 73.1764 26.6419 73.7345L26.1626 74.7274C25.5299 74.2819 24.7731 74.0467 23.9993 74.0551C23.1978 74.0551 22.443 74.5033 22.443 75.1118C22.443 75.8822 23.3083 76.058 24.2219 76.2495C25.6319 76.57 27.0901 77.0992 27.0901 78.6383C27.0901 80.288 25.4078 81.0257 23.8842 81.0257C22.303 81.0257 21.2929 80.3051 20.8447 79.8398Z" fill="white"/>
<path d="M28.586 70.8664C28.5846 70.76 28.6042 70.6544 28.6438 70.5556C28.6834 70.4568 28.7421 70.3669 28.8166 70.2909C28.8911 70.215 28.9799 70.1545 29.0779 70.1131C29.1759 70.0716 29.2811 70.0499 29.3875 70.0493C29.6039 70.0501 29.8113 70.1365 29.9643 70.2895C30.1174 70.4426 30.2037 70.6499 30.2045 70.8664C30.2037 70.9726 30.1819 71.0777 30.1404 71.1755C30.0988 71.2733 30.0383 71.3619 29.9624 71.4363C29.8865 71.5106 29.7966 71.5692 29.6979 71.6087C29.5992 71.6482 29.4938 71.6677 29.3875 71.6663C29.282 71.6675 29.1774 71.6477 29.0797 71.608C28.982 71.5682 28.8932 71.5094 28.8185 71.4349C28.7439 71.3604 28.6849 71.2717 28.6449 71.1741C28.605 71.0765 28.585 70.9718 28.586 70.8664ZM28.7027 72.9969H30.038V80.7426H28.7105L28.7027 72.9969Z" fill="white"/>
<path d="M31.7261 76.9714C31.723 76.4334 31.8272 75.9001 32.0326 75.4027C32.2381 74.9054 32.5407 74.4541 32.9227 74.0751C33.3047 73.6961 33.7584 73.3972 34.2574 73.1957C34.7563 72.9942 35.2905 72.8943 35.8285 72.9018C36.8545 72.8931 37.8474 73.2646 38.6158 73.9445L37.847 74.8098C37.2948 74.3243 36.579 74.0663 35.8441 74.0876C34.21 74.0876 32.9758 75.3062 32.9758 76.973C32.9758 78.5915 34.1617 79.8412 35.8768 79.8412C36.7062 79.8525 37.5065 79.5359 38.1038 78.9604L38.8088 79.8739C38.001 80.6279 36.9334 81.041 35.8285 81.0271C35.2917 81.0346 34.7587 80.9351 34.2607 80.7345C33.7626 80.5339 33.3095 80.2362 32.9277 79.8587C32.5459 79.4812 32.243 79.0315 32.0367 78.5358C31.8304 78.0401 31.7249 77.5084 31.7261 76.9714Z" fill="white"/>
<path d="M39.0728 76.8764C39.0728 74.6027 40.7426 72.8301 43.1191 72.8301C44.4886 72.8301 45.701 73.3405 46.3344 74.3412V72.9904H47.6697V80.736H46.3344V79.3836C45.701 80.4014 44.4886 80.8948 43.1191 80.8948C40.7426 80.901 39.0728 79.1268 39.0728 76.8764ZM46.3873 76.9714C46.3873 75.3373 45.217 74.086 43.7276 74.086C42.1713 74.086 41.0181 75.3046 41.0181 76.9714C41.0181 78.6381 42.1729 79.8396 43.7276 79.8396C45.2201 79.8396 46.3904 78.6055 46.3904 76.9714H46.3873Z" fill="white"/>
<path d="M61.0158 76.8798C61.0158 79.1395 59.4299 80.8701 57.234 80.8701C55.824 80.8701 54.5743 80.0219 54.0763 78.8672V80.7347H53.5425V70.3247H54.0778V74.813C54.3712 74.229 54.8228 73.7391 55.3811 73.3993C55.9394 73.0594 56.582 72.8833 57.2355 72.891C59.4299 72.891 61.0158 74.6045 61.0158 76.8798ZM57.1904 80.2772C59.0502 80.2772 60.3792 78.836 60.3792 76.8798C60.3792 74.9235 59.0019 73.484 57.2075 73.484C55.4131 73.484 54.0654 74.9889 54.0654 76.8798C54.0654 78.7707 55.4396 80.2772 57.1904 80.2772Z" fill="white"/>
<path d="M62.8916 77.9708V72.9907H63.4254V77.8619C63.4254 79.5442 64.258 80.2181 65.6882 80.2181C67.2445 80.2181 68.2328 78.7583 68.2328 77.4931V72.9969H68.7666V80.7426H68.5005V79.1707C67.9962 80.3535 66.8259 80.9044 65.7365 80.9044C63.981 80.9044 62.8916 80.078 62.8916 77.9708Z" fill="white"/>
<path d="M71.1709 72.9967H71.9755V74.7429C72.598 73.4605 73.7808 72.8364 75.1799 72.8364V73.4761C73.2439 73.4761 71.9755 74.9032 71.9755 76.6011V80.7424H71.174L71.1709 72.9967Z" fill="white"/>
<path d="M76.5132 72.9967H77.047V74.7429C77.6695 73.4605 78.8523 72.8364 80.2514 72.8364V73.4761C78.3154 73.4761 77.047 74.9032 77.047 76.6011V80.7424H76.5132V72.9967Z" fill="white"/>
<path d="M81.2904 76.8797C81.2904 76.0905 81.5244 75.319 81.9629 74.6628C82.4013 74.0066 83.0245 73.4952 83.7537 73.1931C84.4828 72.8911 85.2851 72.8121 86.0592 72.9661C86.8332 73.12 87.5442 73.5001 88.1023 74.0581C88.6603 74.6162 89.0404 75.3272 89.1943 76.1012C89.3483 76.8753 89.2693 77.6776 88.9673 78.4068C88.6653 79.1359 88.1538 79.7591 87.4976 80.1976C86.8414 80.636 86.0699 80.87 85.2807 80.87C84.7548 80.8769 84.2328 80.7784 83.7455 80.5804C83.2583 80.3823 82.8157 80.0886 82.4437 79.7167C82.0718 79.3448 81.7782 78.9021 81.5801 78.4149C81.382 77.9276 81.2835 77.4057 81.2904 76.8797ZM88.6298 76.8797C88.6298 74.9577 87.1716 73.4839 85.2807 73.4839C83.3898 73.4839 81.9362 74.9577 81.9362 76.8797C81.9362 78.8017 83.3945 80.2771 85.2854 80.2771C87.1763 80.2771 88.6283 78.8033 88.6283 76.8797H88.6298Z" fill="white"/>
<path d="M89.9595 72.9968H90.5695L92.739 78.9901C92.8279 79.2379 92.9032 79.4904 92.9647 79.7464C92.9647 79.7464 93.0456 79.3916 93.1732 79.0072L95.2462 72.9968H95.7131L97.7689 79.0072C97.8981 79.3916 97.9946 79.7464 97.9946 79.7464C98.056 79.4904 98.1314 79.2379 98.2202 78.9901L100.39 72.9968H101L98.2202 80.7425H97.7689L95.6959 74.7476C95.5995 74.4364 95.4718 73.9695 95.4718 73.9695C95.4718 73.9695 95.3598 74.4364 95.2633 74.7476L93.1732 80.7425H92.739L89.9595 72.9968Z" fill="white"/>
<defs>
<filter id="filter0_f_847_13975" x="49.0953" y="14.378" width="35.4115" height="46.3876" filterUnits="userSpaceOnUse" color-interpolation-filters="sRGB">
<feFlood flood-opacity="0" result="BackgroundImageFix"/>
<feBlend mode="normal" in="SourceGraphic" in2="BackgroundImageFix" result="shape"/>
<feGaussianBlur stdDeviation="2.31564" result="effect1_foregroundBlur_847_13975"/>
</filter>
<filter id="filter1_f_847_13975" x="15.4415" y="0.368711" width="43.1058" height="60.5062" filterUnits="userSpaceOnUse" color-interpolation-filters="sRGB">
<feFlood flood-opacity="0" result="BackgroundImageFix"/>
<feBlend mode="normal" in="SourceGraphic" in2="BackgroundImageFix" result="shape"/>
<feGaussianBlur stdDeviation="2.31564" result="effect1_foregroundBlur_847_13975"/>
</filter>
<linearGradient id="paint0_linear_847_13975" x1="47.8583" y1="32.7878" x2="79.6984" y2="32.7878" gradientUnits="userSpaceOnUse">
<stop stop-color="white" stop-opacity="0"/>
<stop offset="0.755208" stop-color="white"/>
</linearGradient>
<linearGradient id="paint1_linear_847_13975" x1="47.8583" y1="32.7878" x2="79.6984" y2="32.7878" gradientUnits="userSpaceOnUse">
<stop stop-color="white" stop-opacity="0"/>
<stop offset="0.755208" stop-color="white"/>
</linearGradient>
</defs>
</svg>
