<svg xmlns="http://www.w3.org/2000/svg" viewBox="0 0 24 24">
<path fill="currentColor" d="M20.5499 23.6774H20.4013C3.22622 22.6898 0.787618 8.19802 0.446739 3.77533C0.393462 3.08199 0.617776 2.39588 1.07034 1.86791C1.5229 1.33995 2.16665 1.01337 2.85999 0.960016C2.92933 0.954771 2.99896 0.952149 3.06889 0.952149H7.67513C8.02524 0.95181 8.36738 1.05661 8.65724 1.25296C8.9471 1.44932 9.17132 1.72819 9.30086 2.05345L10.6294 5.3224C10.7573 5.64016 10.7891 5.98849 10.7207 6.32414C10.6523 6.65978 10.4869 6.96795 10.2448 7.21035L8.38311 9.08955C8.67274 10.7427 9.46377 12.2667 10.6489 13.455C11.8341 14.6433 13.3561 15.4383 15.0084 15.7323L16.9051 13.8531C17.1511 13.6138 17.4622 13.4522 17.7995 13.3884C18.1368 13.3247 18.4854 13.3617 18.8018 13.4948L22.097 14.8146C22.4173 14.9482 22.6906 15.1742 22.8821 15.4637C23.0736 15.7532 23.1745 16.0932 23.172 16.4403V21.0553C23.172 21.7507 22.8958 22.4177 22.404 22.9094C21.9123 23.4012 21.2453 23.6774 20.5499 23.6774ZM3.06889 2.70025C2.95411 2.6999 2.84038 2.72217 2.7342 2.76578C2.62803 2.80938 2.53148 2.87348 2.45007 2.9544C2.36867 3.03532 2.30399 3.13148 2.25975 3.23739C2.21551 3.3433 2.19256 3.45689 2.19222 3.57168C2.19222 3.59615 2.19309 3.62033 2.19484 3.64422C2.5969 8.8186 5.17535 21.0553 20.4974 21.9293C20.7288 21.9432 20.9562 21.8646 21.1296 21.7109C21.303 21.5571 21.4082 21.3408 21.4222 21.1095L21.4239 21.0553V16.4403L18.1288 15.1205L15.6202 17.6115L15.2007 17.5591C7.59647 16.6064 6.56509 9.00215 6.56509 8.92348L6.51264 8.50394L8.99494 5.99542L7.68387 2.70025H3.06889Z" fill="#C275FF"/>
</svg>
