<svg width="101" height="101" viewBox="0 0 101 101" fill="none" xmlns="http://www.w3.org/2000/svg">
<rect x="0.0545654" width="100.055" height="100.055" rx="20.4111" fill="url(#paint0_linear_603_29351)"/>
<path d="M37.4652 32.2946V70.391C37.4652 70.7979 37.2802 70.9828 36.9472 70.9828H29.6955C29.3625 70.9828 29.2145 70.7979 29.2145 70.391V32.2946C29.2145 31.9617 29.3995 31.8137 29.7325 31.8137H36.9472C37.1692 31.7767 37.3912 31.9247 37.4282 32.1836C37.4652 32.2206 37.4652 32.2576 37.4652 32.2946V32.2946Z" fill="#FF3366"/>
<path d="M58.8505 71.4265C56.1126 71.4635 53.3747 70.9087 50.8957 69.7621C48.5648 68.6895 46.6409 66.9141 45.3089 64.7319C43.94 62.4757 43.274 59.6647 43.274 56.2989C43.237 53.5618 43.94 50.8618 45.3089 48.4946C46.7149 46.0905 48.7498 44.0932 51.1917 42.7617C53.7816 41.3192 56.8896 40.6164 60.5524 40.6164C60.7374 40.6164 60.9964 40.6164 61.3294 40.6534C61.6624 40.6904 62.0324 40.6904 62.4764 40.7274V29.0396C62.4764 28.7806 62.5874 28.6327 62.8464 28.6327H70.3571C70.5421 28.5957 70.6901 28.7437 70.7271 28.8916V28.9656V64.1771C70.7271 64.8428 70.7641 65.5826 70.8011 66.3963C70.8751 67.173 70.9121 67.9127 70.9491 68.5415C70.9491 68.8004 70.8381 69.0223 70.5791 69.1333C68.6552 69.947 66.6202 70.5388 64.5483 70.9087C62.6984 71.2416 60.7744 71.4265 58.8505 71.4265V71.4265ZM62.4764 64.0291V47.7549C62.1434 47.6809 61.8104 47.607 61.4774 47.57C61.0704 47.533 60.6634 47.496 60.2564 47.496C58.8135 47.496 57.3705 47.7919 56.0756 48.4577C54.8176 49.0864 53.7446 50.0111 52.9307 51.1947C52.1167 52.3783 51.7097 53.9687 51.7097 55.892C51.6727 57.1866 51.8947 58.4811 52.3387 59.7017C52.7087 60.7003 53.2637 61.588 54.0036 62.3277C54.7066 62.9935 55.5576 63.5113 56.5196 63.8072C57.5185 64.1401 58.5545 64.288 59.5905 64.288C60.1455 64.288 60.6634 64.251 61.1444 64.2141C61.6254 64.251 62.0694 64.1771 62.4764 64.0291V64.0291Z" fill="#FF3366"/>
<defs>
<linearGradient id="paint0_linear_603_29351" x1="50.0819" y1="0" x2="50.0819" y2="100.055" gradientUnits="userSpaceOnUse">
<stop stop-color="#65203C"/>
<stop offset="1" stop-color="#49021F"/>
</linearGradient>
</defs>
</svg>
