<svg width="55" height="55" viewBox="0 0 55 55" fill="none" xmlns="http://www.w3.org/2000/svg">
<path fill-rule="evenodd" clip-rule="evenodd" d="M17.8392 7.30352H37.2051C38.0533 7.30352 38.7408 7.99107 38.7408 8.8392V45.5792C38.7408 46.4273 38.0533 47.1149 37.2051 47.1149H17.8392C16.9911 47.1149 16.3035 46.4273 16.3035 45.5792V8.8392C16.3035 7.99107 16.9911 7.30352 17.8392 7.30352ZM14 8.8392C14 6.71887 15.7189 5 17.8392 5H37.2051C39.3255 5 41.0443 6.71887 41.0443 8.8392V45.5792C41.0443 47.6995 39.3255 49.4184 37.2051 49.4184H17.8392C15.7189 49.4184 14 47.6995 14 45.5792V8.8392ZM32.9718 20.767V30.1306C32.9718 30.5546 32.628 30.8984 32.204 30.8984H22.8404C22.4164 30.8984 22.0726 30.5546 22.0726 30.1306L22.0726 20.767C22.0726 20.343 22.4164 19.9992 22.8404 19.9992H32.204C32.628 19.9992 32.9718 20.343 32.9718 20.767ZM32.204 18.4635C33.4762 18.4635 34.5075 19.4948 34.5075 20.767V30.1306C34.5075 31.4028 33.4762 32.4341 32.204 32.4341H22.8404C21.5682 32.4341 20.5369 31.4028 20.5369 30.1306L20.5369 20.767C20.5369 19.4948 21.5682 18.4635 22.8404 18.4635L32.204 18.4635ZM30.4619 27.6205V23.2771C30.4619 22.853 30.1181 22.5092 29.694 22.5092H25.3506C24.9265 22.5092 24.5827 22.853 24.5827 23.2771V27.6205C24.5827 28.0446 24.9265 28.3884 25.3506 28.3884H29.694C30.1181 28.3884 30.4619 28.0446 30.4619 27.6205ZM31.2297 23.2771C31.2297 22.4289 30.5422 21.7414 29.694 21.7414H25.3506C24.5024 21.7414 23.8149 22.4289 23.8149 23.2771V27.6205C23.8149 28.4687 24.5024 29.1562 25.3506 29.1562H29.694C30.5422 29.1562 31.2297 28.4687 31.2297 27.6205V23.2771ZM27.5222 44.8764C28.9207 44.8764 30.0543 43.7428 30.0543 42.3443C30.0543 40.9459 28.9207 39.8122 27.5222 39.8122C26.1238 39.8122 24.9901 40.9459 24.9901 42.3443C24.9901 43.7428 26.1238 44.8764 27.5222 44.8764Z" fill="#C275FF"/>
</svg>
