<svg width="55" height="55" viewBox="0 0 55 55" fill="none" xmlns="http://www.w3.org/2000/svg">
<path fill-rule="evenodd" clip-rule="evenodd" d="M46.0376 4L45.8041 7.26852L48.1334 9.57337L44.8649 9.33988L42.56 11.6691L42.7935 8.40061L40.4643 6.09576L43.7328 6.32925L46.0376 4ZM27.8417 10.0711C19.9814 10.0711 13.6094 16.4431 13.6094 24.3034C13.6094 29.6821 16.5926 34.3655 20.9999 36.7866L21.1945 36.8935L21.3317 37.068L24.2758 40.812H31.4074L34.3514 37.0681L34.4887 36.8936L34.6832 36.7867C39.0906 34.3657 42.074 29.6822 42.074 24.3034C42.074 16.4431 35.7019 10.0711 27.8417 10.0711ZM11.4311 24.3034C11.4311 15.2401 18.7784 7.89283 27.8417 7.89283C36.905 7.89283 44.2522 15.2401 44.2522 24.3034C44.2522 30.4279 40.8968 35.7672 35.929 38.5859L32.7927 42.5744L32.4656 42.9903H31.9365H23.7467H23.2176L22.8905 42.5744L19.7541 38.5858C14.7864 35.767 11.4311 30.4278 11.4311 24.3034ZM32.1621 50.2432H23.5214V46.6127H32.1621V50.2432ZM30.0715 22.5832L27.8417 16.5572L25.6119 22.5832L19.5858 24.8131L25.6119 27.0429L27.8417 33.0689L30.0715 27.0429L36.0975 24.8131L30.0715 22.5832ZM10.6425 10.3616L8.5284 7.85797L8.50362 11.1347L6 13.2489L9.27675 13.2736L11.3909 15.7773L11.4157 12.5005L13.9193 10.3864L10.6425 10.3616Z" fill="#C275FF"/>
</svg>
