<svg width="55" height="55" viewBox="0 0 55 55" fill="none" xmlns="http://www.w3.org/2000/svg">
<path fill-rule="evenodd" clip-rule="evenodd" d="M8.4 21.2C8.4 14.1307 14.1307 8.4 21.2 8.4C27.8646 8.4 33.3395 13.4934 33.9445 20H20.2C19.5373 20 19 20.5373 19 21.2V33.8117C12.979 32.7687 8.4 27.5191 8.4 21.2ZM19 36.242C11.6478 35.176 6 28.8476 6 21.2C6 12.8053 12.8053 6 21.2 6C29.1909 6 35.7415 12.1662 36.3533 20H46.2C46.8627 20 47.4 20.5373 47.4 21.2V47.2C47.4 47.8627 46.8627 48.4 46.2 48.4H20.2C19.5373 48.4 19 47.8627 19 47.2V36.242ZM21.4 46V22.4H45V46H21.4Z" fill="#C275FF"/>
</svg>
