<svg width="101" height="101" viewBox="0 0 101 101" fill="none" xmlns="http://www.w3.org/2000/svg">
<rect x="0.0266113" y="0.385986" width="100.055" height="100.055" rx="20.4111" fill="url(#paint0_linear_603_29343)"/>
<path d="M50.0728 62.0088H36.4835L33.7072 70.7007C33.6341 71.0336 33.3419 71.2555 33.0131 71.2185H26.1453C25.7435 71.2185 25.6339 70.9966 25.7435 70.5528L37.5063 36.2659C37.6159 35.8961 37.7255 35.4892 37.8716 35.0454C38.0178 34.2687 38.0908 33.4549 38.0908 32.6412C38.0543 32.4563 38.2004 32.2714 38.3831 32.2344H38.4927H47.8445C48.1367 32.2344 48.2828 32.3453 48.3194 32.5303L61.653 70.6267C61.7626 71.0336 61.653 71.2185 61.2877 71.2185H53.6528C53.3971 71.2555 53.1414 71.0706 53.0683 70.8117L50.0728 62.0088V62.0088ZM38.6023 54.5005H47.881C47.6618 53.7237 47.3696 52.7991 47.0408 51.8374C46.712 50.8388 46.3833 49.7661 46.0545 48.6565C45.6892 47.5099 45.3604 46.4003 44.9951 45.2537C44.6298 44.1072 44.301 43.0345 44.0088 41.9619C43.7165 40.9263 43.4608 39.9646 43.2051 39.0769H43.132C42.8033 40.6674 42.4014 42.2578 41.89 43.8482C41.342 45.6236 40.7941 47.473 40.2096 49.3223C39.6982 51.2086 39.1502 52.947 38.6023 54.5005V54.5005Z" fill="url(#paint1_linear_603_29343)"/>
<path d="M69.7993 38.7068C68.5938 38.7438 67.4248 38.263 66.5481 37.4123C65.7079 36.4876 65.2695 35.267 65.3061 34.0095C65.2695 32.7519 65.7444 31.5683 66.6212 30.7176C67.4979 29.8669 68.6669 29.4231 69.8724 29.4231C71.2971 29.4231 72.393 29.8669 73.1967 30.7176C74.0003 31.6053 74.4387 32.7889 74.4022 34.0095C74.4387 35.267 74.0003 36.4876 73.1236 37.4123C72.2834 38.2999 71.0414 38.7808 69.7993 38.7068ZM65.7079 70.8114V42.3315C65.7079 41.9616 65.854 41.8137 66.1828 41.8137H73.4158C73.7446 41.8137 73.8907 41.9986 73.8907 42.3315V70.8114C73.8907 71.2183 73.7446 71.4032 73.4158 71.4032H66.2559C65.8906 71.4032 65.7079 71.1813 65.7079 70.8114V70.8114Z" fill="url(#paint2_linear_603_29343)"/>
<defs>
<linearGradient id="paint0_linear_603_29343" x1="50.0539" y1="0.385986" x2="50.0539" y2="100.441" gradientUnits="userSpaceOnUse">
<stop stop-color="#582A2A"/>
<stop offset="1" stop-color="#330000"/>
</linearGradient>
<linearGradient id="paint1_linear_603_29343" x1="43.6985" y1="32.2344" x2="43.6985" y2="71.2232" gradientUnits="userSpaceOnUse">
<stop stop-color="#FFB647"/>
<stop offset="1" stop-color="#FF9A00"/>
</linearGradient>
<linearGradient id="paint2_linear_603_29343" x1="69.8541" y1="29.4231" x2="69.8541" y2="71.4032" gradientUnits="userSpaceOnUse">
<stop stop-color="#FFB647"/>
<stop offset="1" stop-color="#FF9A00"/>
</linearGradient>
</defs>
</svg>
