<svg width="102" height="101" viewBox="0 0 102 101" fill="none" xmlns="http://www.w3.org/2000/svg">
<rect x="0.977661" y="0.385986" width="100.055" height="100.055" rx="20.4111" fill="url(#paint0_linear_603_29336)"/>
<path d="M24.6284 69.1284V31.069C24.6284 30.8101 24.738 30.6621 24.9937 30.6621C25.6147 30.6621 26.1992 30.6621 27.0394 30.6251C27.9162 30.5881 28.8294 30.5881 29.8158 30.5511C30.8021 30.5142 31.8615 30.5142 32.9939 30.4772C34.1264 30.4402 35.2223 30.4402 36.3182 30.4402C39.3137 30.4402 41.7978 30.8101 43.8435 31.5868C45.67 32.2156 47.3504 33.2512 48.7386 34.6197C49.9075 35.8033 50.8208 37.2458 51.4053 38.8362C51.9532 40.3896 52.2455 41.9801 52.2455 43.6445C52.2455 46.8254 51.5149 49.4514 50.0537 51.5227C48.5924 53.594 46.5467 55.1474 44.1722 56.0351C41.6882 56.9598 38.9484 57.2926 35.9529 57.2926C35.0761 57.2926 34.4917 57.2926 34.1264 57.2557C33.761 57.2187 33.2496 57.2187 32.5555 57.2187V69.0915C32.5921 69.3504 32.4094 69.5723 32.1537 69.6093C32.1172 69.6093 32.0806 69.6093 32.0076 69.6093H25.0668C24.7745 69.6093 24.6284 69.4613 24.6284 69.1284ZM32.5921 37.8006V50.2282C33.1035 50.2651 33.5784 50.3021 34.0168 50.3021H35.9529C37.3776 50.3021 38.8023 50.0802 40.1539 49.6364C41.3229 49.3035 42.3457 48.6007 43.1494 47.6761C43.9165 46.7514 44.2818 45.4938 44.2818 43.8664C44.3184 42.7198 44.0261 41.5732 43.4416 40.5746C42.8206 39.6129 41.9439 38.8732 40.8845 38.4663C39.5329 37.9115 38.0716 37.6896 36.5739 37.7266C35.6241 37.7266 34.7839 37.7266 34.0898 37.7636C33.3592 37.7266 32.8478 37.7636 32.5921 37.8006Z" fill="url(#paint1_linear_603_29336)"/>
<path d="M75.0406 47.9721C73.9447 47.3803 72.7757 46.9734 71.5337 46.7145C70.182 46.4186 68.8304 46.2337 67.4422 46.2337C66.7116 46.1967 65.9445 46.3077 65.2504 46.4926C64.7755 46.6036 64.3737 46.8625 64.118 47.2323C63.9353 47.5282 63.8257 47.8981 63.8257 48.231C63.8257 48.5639 63.9718 48.8967 64.191 49.1926C64.5198 49.5995 64.9582 49.9324 65.4331 50.1913C66.2733 50.6351 67.15 51.042 68.0267 51.4118C69.9994 52.0776 71.899 53.0023 73.6524 54.1119C74.8579 54.8886 75.8443 55.9242 76.5383 57.1818C77.1228 58.3654 77.4151 59.6599 77.3785 60.9914C77.4151 62.7298 76.9037 64.4682 75.9539 65.9107C74.931 67.3902 73.5063 68.5368 71.8624 69.2025C70.0724 69.9792 67.8806 70.3861 65.2504 70.3861C63.57 70.3861 61.9261 70.2382 60.2823 69.9053C59.0037 69.6833 57.7251 69.2765 56.5561 68.7217C56.3004 68.5737 56.1178 68.3148 56.1543 68.0189V61.5832C56.1543 61.4723 56.1908 61.3243 56.3004 61.2503C56.41 61.1764 56.5196 61.2134 56.6292 61.2873C58.0539 62.138 59.5517 62.7298 61.159 63.0997C62.5472 63.4696 64.0084 63.6545 65.4696 63.6545C66.8578 63.6545 67.8441 63.4696 68.5016 63.1367C69.0861 62.8778 69.488 62.249 69.488 61.5832C69.488 61.0654 69.1957 60.5846 68.6112 60.1038C68.0267 59.6229 66.8212 59.0681 65.0312 58.3654C63.1682 57.6996 61.4512 56.8119 59.8439 55.7023C58.7114 54.8886 57.7617 53.816 57.0676 52.5584C56.4831 51.3749 56.1908 50.0803 56.2274 48.7858C56.2274 47.1953 56.6657 45.6789 57.4694 44.3104C58.3827 42.8309 59.7343 41.6473 61.3051 40.9076C63.022 40.0199 65.1774 39.613 67.771 39.613C69.2688 39.613 70.8031 39.724 72.3008 39.9459C73.3967 40.0939 74.4561 40.3898 75.4424 40.7966C75.5886 40.8336 75.7347 40.9816 75.8077 41.1295C75.8443 41.2774 75.8808 41.4254 75.8808 41.5733V47.6022C75.8808 47.7501 75.8077 47.8981 75.6981 47.9721C75.3694 48.046 75.1867 48.046 75.0406 47.9721Z" fill="url(#paint2_linear_603_29336)"/>
<defs>
<linearGradient id="paint0_linear_603_29336" x1="51.005" y1="0.385986" x2="51.005" y2="100.441" gradientUnits="userSpaceOnUse">
<stop stop-color="#0E3E64"/>
<stop offset="1" stop-color="#1B0032"/>
</linearGradient>
<linearGradient id="paint1_linear_603_29336" x1="38.437" y1="30.4402" x2="38.437" y2="69.6093" gradientUnits="userSpaceOnUse">
<stop stop-color="#5FBBFF"/>
<stop offset="1" stop-color="#31A8FF"/>
</linearGradient>
<linearGradient id="paint2_linear_603_29336" x1="66.7656" y1="39.613" x2="66.7656" y2="70.3861" gradientUnits="userSpaceOnUse">
<stop stop-color="#5FBBFF"/>
<stop offset="1" stop-color="#31A8FF"/>
</linearGradient>
</defs>
</svg>
