<svg width="101" height="101" viewBox="0 0 101 101" fill="none" xmlns="http://www.w3.org/2000/svg">
<rect x="0.0272217" y="0.730225" width="100.055" height="100.055" rx="20.4111" fill="url(#paint0_linear_657_23552)"/>
<path d="M58.0581 23.6062L25.0562 27.907V28.1561L29.8234 56.6516L36.5985 77.9089L71.413 67.9954L75.0529 36.9423L58.0581 23.6062ZM57.1734 26.904L70.8904 37.6845L58.7012 39.8765L51.2615 32.1339L30.5464 35.1508L28.6573 30.6276L57.1734 26.904ZM51.5429 40.4804L58.6031 49.2876L47.1584 51.7236L44.4233 47.0156L33.8834 49.0687L31.9728 43.9396L51.5429 40.4804ZM45.2076 56.3498L47.8035 61.4583L37.2253 64.0924L35.3534 58.6012L45.2076 56.3498Z" fill="#E7242D"/>
<defs>
<linearGradient id="paint0_linear_657_23552" x1="50.0545" y1="0.730225" x2="50.0545" y2="100.785" gradientUnits="userSpaceOnUse">
<stop stop-color="#F8F8F8"/>
<stop offset="1" stop-color="#D0D0D0"/>
</linearGradient>
</defs>
</svg>
