<svg width="55" height="55" viewBox="0 0 55 55" fill="none" xmlns="http://www.w3.org/2000/svg">
<path fill-rule="evenodd" clip-rule="evenodd" d="M46.272 12.0283H8.44736C7.11136 12.0283 6.02832 13.1114 6.02832 14.4474V34.3981H12.3623V36.4264H6.02832V40.6466C6.02832 41.9826 7.11136 43.0657 8.44736 43.0657H46.272C47.608 43.0657 48.6911 41.9826 48.6911 40.6466V36.4264L19.5434 36.4264V34.3981L48.6911 34.3981V14.4474C48.6911 13.1114 47.608 12.0283 46.272 12.0283ZM8.44736 10C5.99115 10 4 11.9912 4 14.4474V40.6466C4 43.1028 5.99115 45.094 8.44736 45.094H46.272C48.7282 45.094 50.7194 43.1028 50.7194 40.6466V14.4474C50.7194 11.9912 48.7282 10 46.272 10H8.44736ZM17.6136 36.4264H14.3863V34.3981H17.6136V36.4264ZM26.7133 17.4824L33.7474 21.5435C34.0707 21.7302 34.1815 22.1437 33.9948 22.4671L29.9337 29.5012C29.747 29.8246 29.3335 29.9354 29.0101 29.7487L21.976 25.6876C21.6526 25.5009 21.5418 25.0874 21.7285 24.764L25.7897 17.7299C25.9764 17.4065 26.3899 17.2957 26.7133 17.4824ZM24.6186 17.0538C25.1787 16.0836 26.4192 15.7512 27.3894 16.3113L34.4235 20.3725C35.3936 20.9326 35.726 22.1731 35.1659 23.1432L31.1047 30.1773C30.5446 31.1475 29.3041 31.4799 28.334 30.9198L21.2999 26.8586C20.3298 26.2985 19.9974 25.058 20.5575 24.0879L24.6186 17.0538Z" fill="#C275FF"/>
</svg>
