<svg width="18" height="27" viewBox="0 0 18 27" fill="none" xmlns="http://www.w3.org/2000/svg">
<g clip-path="url(#clip0_815_4649)">
<path d="M4.62706 26.4013C7.02326 26.4013 8.968 24.4599 8.968 22.0679V17.7346H4.62706C2.23087 17.7346 0.286133 19.6759 0.286133 22.0679C0.286133 24.4599 2.23087 26.4013 4.62706 26.4013Z" fill="url(#paint0_linear_815_4649)"/>
<path d="M0.286133 13.4012C0.286133 11.0092 2.23087 9.0679 4.62706 9.0679H8.968V17.7346H4.62706C2.23087 17.7346 0.286133 15.7932 0.286133 13.4012Z" fill="url(#paint1_linear_815_4649)"/>
<path d="M0.286133 4.73455C0.286133 2.34255 2.23087 0.401215 4.62706 0.401215H8.968V9.06789H4.62706C2.23087 9.06789 0.286133 7.12655 0.286133 4.73455Z" fill="url(#paint2_linear_815_4649)"/>
<path d="M8.96777 0.40123H13.3087C15.7049 0.40123 17.6496 2.34256 17.6496 4.73457C17.6496 7.12657 15.7049 9.0679 13.3087 9.0679H8.96777V0.40123Z" fill="url(#paint3_linear_815_4649)"/>
<path d="M17.6496 13.4012C17.6496 15.7932 15.7049 17.7346 13.3087 17.7346C10.9125 17.7346 8.96777 15.7932 8.96777 13.4012C8.96777 11.0092 10.9125 9.06791 13.3087 9.06791C15.7049 9.06791 17.6496 11.0092 17.6496 13.4012Z" fill="url(#paint4_linear_815_4649)"/>
</g>
<defs>
<linearGradient id="paint0_linear_815_4649" x1="4.62706" y1="17.7346" x2="4.62706" y2="26.4013" gradientUnits="userSpaceOnUse">
<stop stop-color="#63FFC3"/>
<stop offset="1" stop-color="#0ACF83"/>
</linearGradient>
<linearGradient id="paint1_linear_815_4649" x1="4.62706" y1="9.0679" x2="4.62706" y2="17.7346" gradientUnits="userSpaceOnUse">
<stop stop-color="#C89CFF"/>
<stop offset="1" stop-color="#A259FF"/>
</linearGradient>
<linearGradient id="paint2_linear_815_4649" x1="4.62706" y1="0.401215" x2="4.62706" y2="9.06789" gradientUnits="userSpaceOnUse">
<stop stop-color="#FF7750"/>
<stop offset="1" stop-color="#F24E1E"/>
</linearGradient>
<linearGradient id="paint3_linear_815_4649" x1="13.3087" y1="0.40123" x2="13.3087" y2="9.0679" gradientUnits="userSpaceOnUse">
<stop stop-color="#FF8D81"/>
<stop offset="1" stop-color="#FF7262"/>
</linearGradient>
<linearGradient id="paint4_linear_815_4649" x1="13.3087" y1="9.06791" x2="13.3087" y2="17.7346" gradientUnits="userSpaceOnUse">
<stop stop-color="#88DDFF"/>
<stop offset="1" stop-color="#1ABCFE"/>
</linearGradient>
<clipPath id="clip0_815_4649">
<rect width="17.3672" height="26" fill="white" transform="translate(0.28418 0.401245)"/>
</clipPath>
</defs>
</svg>
